<svg class="toyplot-canvas-Canvas" xmlns:toyplot="http://www.sandia.gov/toyplot" xmlns:xlink="http://www.w3.org/1999/xlink" xmlns="http://www.w3.org/2000/svg" width="600.0px" height="500.0px" viewBox="0 0 600.0 500.0" preserveAspectRatio="xMidYMid meet" style="background-color:transparent;border-color:#292724;border-style:none;border-width:1.0;fill:rgb(16.1%,15.3%,14.1%);fill-opacity:1.0;font-family:Helvetica;font-size:12px;opacity:1.0;stroke:rgb(16.1%,15.3%,14.1%);stroke-opacity:1.0;stroke-width:1.0" id="t27de1b6481a1442483d3145c7b96f8d7"><g class="toyplot-coordinates-Cartesian" id="tdc876c37f11144c6ab5b19307c6761a4"><clipPath id="t0d7af9d8e2cf4dc7a26ccb46248febba"><rect x="50.0" y="50.0" width="500.0" height="400.0" /></clipPath><g clip-path="url(#t0d7af9d8e2cf4dc7a26ccb46248febba)"><g class="toyplot-mark-Plot" style="fill:none" id="t6e4a09ac8b2647748db38a9107d82766"><g class="toyplot-Series"><path d="M 1020.0 175.6745523669358 L 1015.1999999999999 177.52840505549463 L 1010.4000000000001 179.44858589290936 L 1005.5999999999999 180.0310967558673 L 1000.8000000000001 181.2317761107381 L 996.0 181.9191903837738 L 991.1999999999999 183.08766613433684 L 986.4000000000001 183.59548492517865 L 981.5999999999999 185.57614493501677 L 976.7999999999998 187.09423020274946 L 972.0 188.42046366869448 L 967.1999999999999 189.6036540668411 L 962.4 190.93787522643996 L 957.6 192.45228707328215 L 952.8000000000001 193.644550083176 L 948.0 194.90112990706814 L 943.2 196.64583683259397 L 938.4000000000001 197.36530115524747 L 933.6 198.60951532423053 L 928.8 200.36946589144213 L 924.0 202.05755296698354 L 919.2 202.97730639339963 L 914.4000000000001 204.02049014456952 L 909.5999999999999 203.9934482435919 L 904.8 204.83726196540948 L 900.0 205.71081034118546 L 895.2 206.9244528030926 L 890.4000000000001 207.9196112590219 L 885.5999999999999 208.97317182139864 L 880.8 210.7586949630987 L 876.0 211.85109191329624 L 871.2 212.04260885749719 L 866.4 213.84949034298108 L 861.5999999999999 214.3659682635515 L 856.8 216.2933034620675 L 852.0 217.33450569515264 L 847.1999999999999 217.89456549460888 L 842.4 219.22179692321475 L 837.6 220.83290605416505 L 832.8000000000001 222.15971614590555 L 828.0 223.8676928362205 L 823.2 224.14062854827012 L 818.4000000000001 224.38574847156494 L 813.6 225.06664405079687 L 808.8 226.59817317195555 L 804.0 227.42021707864097 L 799.2 228.78039217450043 L 794.4000000000001 230.15718366462346 L 789.5999999999999 231.98522972104018 L 784.8 233.69351982649124 L 780.0 234.32790181005996 L 775.2 235.6114056106786 L 770.4000000000001 236.85646364017697 L 765.5999999999999 238.78744929808536 L 760.8 240.78773770846726 L 756.0 242.18573228506375 L 751.2 243.77896681099716 L 746.4 245.0446184563447 L 741.5999999999999 246.43569485028317 L 736.8 247.58002056761936 L 732.0 248.81014668560152 L 727.1999999999999 250.1589004829593 L 722.4 251.84381067486188 L 717.6 252.87618670537856 L 712.8000000000001 254.05211564418042 L 708.0 255.44449116709666 L 703.2 256.6606991266404 L 698.4000000000001 257.40784563569787 L 693.6 258.14160247491935 L 688.8 259.54343413690196 L 684.0 261.54713102881226 L 679.2 262.96487797249193 L 674.4000000000001 265.0646177056002 L 669.5999999999999 266.27741576035186 L 664.8 268.9989497669256 L 660.0 270.6719098965509 L 655.2 272.9138305269677 L 650.4000000000001 274.15746061378223 L 645.5999999999999 275.4660624633743 L 640.8 277.089808342762 L 636.0 278.22378424860483 L 631.2 279.44528016653936 L 626.4 280.48942982323456 L 621.5999999999999 282.33474542176634 L 616.8 284.53754383414895 L 612.0 285.933611689473 L 607.1999999999999 286.662513856375 L 602.4 287.29429424654086 L 597.6 288.8509862656574 L 592.8000000000001 289.75836259502285 L 588.0 291.21107275016055 L 583.2 292.4751505179837 L 578.4000000000001 294.2260013642348 L 573.6 295.63935756924604 L 568.8 296.735184016187 L 564.0 298.52676582087537 L 559.2 299.2509626397233 L 554.4000000000001 300.2719735962823 L 549.5999999999999 301.1083154394153 L 544.8 302.30884463357063 L 540.0 303.5546512427931 L 535.2 304.79551797487454 L 530.4000000000001 305.69818536100337 L 525.5999999999999 306.78857310115717 L 520.8 308.2817387361571 L 516.0 309.0745947466534 L 511.2 309.97727705992315 L 506.40000000000003 311.1223110928437 L 501.6 312.7752556250222 L 496.8 314.5116829545958 L 492.0 315.21704232673386 L 487.20000000000005 316.98696493731535 L 482.4 317.8662922988197 L 477.6 319.098071064662 L 472.79999999999995 320.86531947090594 L 468.0 322.3371507314339 L 463.2 323.65517171080216 L 458.4 325.19617038014576 L 453.59999999999997 326.07232017436456 L 448.8 326.6315791544757 L 444.0 327.57519850931044 L 439.20000000000005 329.8648402910413 L 434.4 330.918552747951 L 429.6 332.226484415001 L 424.79999999999995 333.41578528108823 L 420.0 334.58237768777303 L 415.20000000000005 334.7750147454646 L 410.4 335.50772338086557 L 405.6 337.4165955743702 L 400.79999999999995 338.51797000945925 L 396.0 339.6866811858938 L 391.2 340.3356552972506 L 386.40000000000003 341.35171189214776 L 381.6 341.854366428313 L 376.8 343.41943588098013 L 372.0 345.288615007121 L 367.20000000000005 346.02196572530966 L 362.4 347.28949829259506 L 357.6 348.62767770146723 L 352.79999999999995 349.08136672618264 L 348.0 350.22886632215966 L 343.2 352.4446181850342 L 338.4 352.9565765483149 L 333.59999999999997 354.6393416438202 L 328.8 355.6789091729408 L 324.0 356.8522300247898 L 319.20000000000005 358.37479538757094 L 314.4 358.7379126151111 L 309.6 359.4714633507732 L 304.79999999999995 360.6311576468912 L 300.0 362.23447867213247 L 295.20000000000005 363.06335025471077 L 290.4 364.83036158673286 L 285.59999999999997 365.7850894836337 L 280.8 367.7462615624535 L 276.0 369.481239752423 L 271.2 370.7353780929862 L 266.4 372.13002836608666 L 261.59999999999997 374.2900653959034 L 256.79999999999995 375.6967284649836 L 252.0 376.51259535895076 L 247.2 377.51413879676005 L 242.39999999999998 379.10188478371737 L 237.60000000000002 380.3603838232326 L 232.8 381.62683385419393 L 228.0 383.1637377722581 L 223.20000000000002 384.07449133530326 L 218.4 385.5890712877648 L 213.60000000000002 386.8319160925741 L 208.8 389.0803874210246 L 204.0 390.3204048060977 L 199.2 391.38885296866954 L 194.4 393.03982006561876 L 189.60000000000002 394.17447008038675 L 184.8 394.3230492722121 L 180.0 395.61863799660733 L 175.2 397.3069940600755 L 170.4 398.3879463742013 L 165.6 399.88769302028027 L 160.8 401.5693385067674 L 156.0 402.9714855011131 L 151.2 404.4568862061197 L 146.4 405.08111277346234 L 141.60000000000002 407.2977786392439 L 136.8 408.6324961240158 L 132.0 410.2064601367023 L 127.20000000000002 411.6634952419803 L 122.4 413.28213912906784 L 117.6 414.7644837973602 L 112.8 416.90956866605524 L 108.0 418.0644657471165 L 103.2 420.84886750261876 L 98.4 422.7390363995279 L 93.6 424.53716234555446 L 88.8 426.8087422665469 L 84.0 429.2359169826945 L 79.19999999999999 430.8681407042375 L 74.39999999999999 432.94832299741597 L 69.6 435.27706161694925 L 64.8 437.64019505399915" style="stroke:rgb(36.9%,31%,63.5%);stroke-opacity:1.0;stroke-width:2.0" /></g></g><g class="toyplot-mark-Text" id="t3172d6aa012348aa8366a9862372cc00"><g class="toyplot-Series"><g class="toyplot-Datum" transform="translate(444.0,315.21704232673386)"><text x="5.0" y="3.577" style="fill:rgb(36.9%,31%,63.5%);fill-opacity:1.0;font-family:helvetica;font-size:14.0px;font-weight:normal;opacity:1;stroke:none;vertical-align:baseline;white-space:pre">Neutral</text></g></g></g><g class="toyplot-mark-Plot" style="fill:none" id="t4a231558ab5c4ea48a29e86d378865d1"><g class="toyplot-Series"><path d="M 1020.0 283.129084419568 L 1015.1999999999999 283.86157274599367 L 1010.4000000000001 284.4180956581515 L 1005.5999999999999 285.58814337786913 L 1000.8000000000001 285.91139000931423 L 996.0 286.5537770163933 L 991.1999999999999 287.56617816281323 L 986.4000000000001 288.23190081313345 L 981.5999999999999 289.00462736148495 L 976.7999999999998 289.8829443005957 L 972.0 290.7669668374111 L 967.1999999999999 292.1154219917226 L 962.4 292.8272585986559 L 957.6 293.8960666595118 L 952.8000000000001 295.24264312156515 L 948.0 295.928934083158 L 943.2 296.75256538765626 L 938.4000000000001 297.2749485411155 L 933.6 298.044352420201 L 928.8 298.68293037207286 L 924.0 299.8443925528344 L 919.2 300.1820101005829 L 914.4000000000001 300.8072775066346 L 909.5999999999999 301.5010511636686 L 904.8 302.4934586749296 L 900.0 303.41621109498743 L 895.2 303.98655107138063 L 890.4000000000001 304.994177164123 L 885.5999999999999 305.74253800165945 L 880.8 307.0234138588969 L 876.0 307.47939010333346 L 871.2 308.37819663024516 L 866.4 309.2872456400023 L 861.5999999999999 310.26199632454995 L 856.8 311.73620573360927 L 852.0 312.0214711709255 L 847.1999999999999 312.22811777770346 L 842.4 313.1869897822693 L 837.6 313.48302963480666 L 832.8000000000001 314.63077215005785 L 828.0 315.32629251268486 L 823.2 316.5763310764165 L 818.4000000000001 317.21729585685216 L 813.6 317.4434457830496 L 808.8 318.0542231289312 L 804.0 318.9469811107332 L 799.2 319.42747340910523 L 794.4000000000001 320.41700725421845 L 789.5999999999999 321.6043046734832 L 784.8 322.7120529284359 L 780.0 323.4782374992203 L 775.2 323.77873612198897 L 770.4000000000001 324.1431233369714 L 765.5999999999999 324.5700096862365 L 760.8 325.3459940934229 L 756.0 326.60903093890505 L 751.2 327.28592609259334 L 746.4 327.5581380861572 L 741.5999999999999 328.15583401200075 L 736.8 329.17578267149815 L 732.0 330.3749190267908 L 727.1999999999999 330.4649085113115 L 722.4 331.1340233229939 L 717.6 331.1862109150465 L 712.8000000000001 331.68371190647184 L 708.0 331.9629804977393 L 703.2 332.9248464017344 L 698.4000000000001 333.49224243376347 L 693.6 333.7175898216091 L 688.8 334.6330485451987 L 684.0 335.1604695063423 L 679.2 336.2581229603114 L 674.4000000000001 336.77452244664806 L 669.5999999999999 337.3806991724879 L 664.8 337.936385719562 L 660.0 338.77353757462896 L 655.2 340.06467537101247 L 650.4000000000001 340.44109764293324 L 645.5999999999999 340.93495746402886 L 640.8 341.9276992456151 L 636.0 343.21913868074637 L 631.2 343.9479761267115 L 626.4 345.0001239355322 L 621.5999999999999 345.38935542596005 L 616.8 346.3381040569128 L 612.0 347.98039606587605 L 607.1999999999999 349.25246618455293 L 602.4 349.8705625893907 L 597.6 350.7063457827961 L 592.8000000000001 351.7319238491867 L 588.0 352.8994104675536 L 583.2 353.69106653878185 L 578.4000000000001 353.9088334681113 L 573.6 355.1489123145004 L 568.8 355.70367497249725 L 564.0 356.07381524370953 L 559.2 357.16078113547576 L 554.4000000000001 357.50235615092447 L 549.5999999999999 358.27105038448985 L 544.8 358.8064643698448 L 540.0 359.855326047031 L 535.2 360.69606288452945 L 530.4000000000001 361.5016786465712 L 525.5999999999999 362.76346255361585 L 520.8 363.60756316472305 L 516.0 364.9467813974593 L 511.2 365.59700099503124 L 506.40000000000003 366.8351467065017 L 501.6 367.7249240460385 L 496.8 368.79724772273767 L 492.0 369.83137797878464 L 487.20000000000005 370.25181963789043 L 482.4 370.9516651317021 L 477.6 372.114520578122 L 472.79999999999995 372.4304093481951 L 468.0 373.39771656024163 L 463.2 373.81150110057524 L 458.4 374.63451552321277 L 453.59999999999997 375.1768012487974 L 448.8 375.7763417930473 L 444.0 376.1546848660609 L 439.20000000000005 376.8763689916107 L 434.4 377.3608599679536 L 429.6 377.9992611723794 L 424.79999999999995 378.1196436475583 L 420.0 378.583357547158 L 415.20000000000005 378.99830213295616 L 410.4 379.51576048650355 L 405.6 380.6434701999649 L 400.79999999999995 380.74327380249105 L 396.0 381.80581733052543 L 391.2 381.9324461073074 L 386.40000000000003 382.5527308906361 L 381.6 383.0512951560317 L 376.8 383.7576993337743 L 372.0 384.8127864818356 L 367.20000000000005 385.7684666495231 L 362.4 386.89721607696674 L 357.6 387.7941449365435 L 352.79999999999995 388.53777204445856 L 348.0 388.86559972512697 L 343.2 389.19059764452794 L 338.4 389.2998571549179 L 333.59999999999997 389.7906402113349 L 328.8 390.57650301167706 L 324.0 391.5911067723371 L 319.20000000000005 392.81775400391575 L 314.4 394.3727468327302 L 309.6 395.3604758101386 L 304.79999999999995 396.85879077382566 L 300.0 397.0278119929701 L 295.20000000000005 397.45944195881606 L 290.4 397.5970722295612 L 285.59999999999997 398.45509643850227 L 280.8 398.974925055576 L 276.0 399.47203354681494 L 271.2 400.0933337957298 L 266.4 400.7425321999236 L 261.59999999999997 401.41785545521157 L 256.79999999999995 401.8470154658384 L 252.0 402.761487968701 L 247.2 403.47853038819477 L 242.39999999999998 404.2097414444825 L 237.60000000000002 404.19649259872597 L 232.8 405.3380323813236 L 228.0 406.5033982251166 L 223.20000000000002 407.1183383053672 L 218.4 407.849105253942 L 213.60000000000002 409.3100744361283 L 208.8 410.4256920080468 L 204.0 411.00664956987816 L 199.2 411.63732140057215 L 194.4 412.63237799052433 L 189.60000000000002 413.516521715643 L 184.8 414.5928881051669 L 180.0 414.8306755565796 L 175.2 416.12742259885823 L 170.4 417.2934570596845 L 165.6 417.3204932363739 L 160.8 418.04835557293666 L 156.0 419.0708272799714 L 151.2 419.1634576916428 L 146.4 420.86758848806414 L 141.60000000000002 421.26537134579894 L 136.8 422.16685103192464 L 132.0 423.2046206349745 L 127.20000000000002 424.1696049123238 L 122.4 425.491877231541 L 117.6 426.0723002646365 L 112.8 427.2542093162305 L 108.0 427.8431909890457 L 103.2 428.77334085150926 L 98.4 429.7239804779299 L 93.6 431.11306102276154 L 88.8 432.01997346156577 L 84.0 433.1488384045357 L 79.19999999999999 434.42793247643203 L 74.39999999999999 435.76893418431433 L 69.6 437.16320278267705 L 64.8 438.51213085167416" style="stroke:rgb(28.2%,42.2%,68.8%);stroke-opacity:1.0;stroke-width:2.0" /></g></g><g class="toyplot-mark-Text" id="t2d81aec02d90438684e29ac2d6b66adf"><g class="toyplot-Series"><g class="toyplot-Datum" transform="translate(444.0,369.83137797878464)"><text x="5.0" y="3.577" style="fill:rgb(28.2%,42.2%,68.8%);fill-opacity:1.0;font-family:helvetica;font-size:14.0px;font-weight:normal;opacity:1;stroke:none;vertical-align:baseline;white-space:pre">Purifying</text></g></g></g><g class="toyplot-mark-Plot" style="fill:none" id="t002d158df7db4796b42a530f5f42a3f6"><g class="toyplot-Series"><path d="M 1020.0 270.52076061729707 L 1015.1999999999999 272.16780789219325 L 1010.4000000000001 273.10385272206344 L 1005.5999999999999 273.95490828759534 L 1000.8000000000001 273.8848020392144 L 996.0 274.7485885141154 L 991.1999999999999 275.63012799357125 L 986.4000000000001 276.7798835972268 L 981.5999999999999 278.29109023227267 L 976.7999999999998 279.27014462543417 L 972.0 279.85943115481797 L 967.1999999999999 280.98401719480825 L 962.4 282.24778392283554 L 957.6 282.4613826810125 L 952.8000000000001 282.9875868236277 L 948.0 283.84769954530753 L 943.2 284.3098168240394 L 938.4000000000001 284.52049791258065 L 933.6 284.88154772042583 L 928.8 285.7849994104008 L 924.0 286.61262498633926 L 919.2 287.66897190354183 L 914.4000000000001 288.493770345638 L 909.5999999999999 289.387393208291 L 904.8 289.93186385151074 L 900.0 290.45624221439846 L 895.2 291.50430062640834 L 890.4000000000001 292.1267372698878 L 885.5999999999999 292.5047580131 L 880.8 293.005686881603 L 876.0 293.73829582659107 L 871.2 294.51866271731603 L 866.4 294.9376761225793 L 861.5999999999999 295.9268205759615 L 856.8 297.5857229651277 L 852.0 297.9627372647362 L 847.1999999999999 298.85594512428816 L 842.4 299.3242678208295 L 837.6 299.89545213627 L 832.8000000000001 300.86694550847704 L 828.0 301.6743578469979 L 823.2 302.06900624889556 L 818.4000000000001 303.1869794762365 L 813.6 303.8123034640082 L 808.8 304.89234896580626 L 804.0 305.77194056742155 L 799.2 306.7712979377862 L 794.4000000000001 307.91863094860923 L 789.5999999999999 308.7311446697215 L 784.8 309.74509939403526 L 780.0 310.4435779304231 L 775.2 311.24335536973985 L 770.4000000000001 312.4474357145484 L 765.5999999999999 312.53528538612164 L 760.8 313.77304730078043 L 756.0 314.2436842126069 L 751.2 315.12324926421957 L 746.4 315.6768841622309 L 741.5999999999999 316.6026565953752 L 736.8 316.43668704860676 L 732.0 317.63192101787337 L 727.1999999999999 318.65787295601405 L 722.4 319.15765618648624 L 717.6 319.97170350895385 L 712.8000000000001 320.93522169990405 L 708.0 321.67783153718216 L 703.2 321.9969598002747 L 698.4000000000001 322.21058629084604 L 693.6 323.0372534043546 L 688.8 324.0838497885253 L 684.0 324.661589330796 L 679.2 325.34216575792686 L 674.4000000000001 326.5100671004526 L 669.5999999999999 326.92676564742635 L 664.8 327.71902965309687 L 660.0 328.63970204371816 L 655.2 329.4486181820198 L 650.4000000000001 330.9603707335625 L 645.5999999999999 331.4425515141048 L 640.8 331.76128470118925 L 636.0 332.55967927737066 L 631.2 333.02541692443134 L 626.4 333.738609867588 L 621.5999999999999 334.51311514633113 L 616.8 335.66338992870595 L 612.0 336.60139062990817 L 607.1999999999999 337.6476994184933 L 602.4 338.75964257912165 L 597.6 339.5264526795504 L 592.8000000000001 340.4677033937569 L 588.0 341.4219909903895 L 583.2 341.9780822580686 L 578.4000000000001 342.68717724833624 L 573.6 343.88839447671234 L 568.8 345.3233568307283 L 564.0 345.3934049170302 L 559.2 346.2786639508433 L 554.4000000000001 346.85638170077266 L 549.5999999999999 347.6265667943212 L 544.8 348.62459231345457 L 540.0 349.2332959356673 L 535.2 349.82910347128114 L 530.4000000000001 350.13223351425245 L 525.5999999999999 351.31846343630355 L 520.8 352.5816895066629 L 516.0 354.07812047590807 L 511.2 354.8702593941092 L 506.40000000000003 356.0697788883174 L 501.6 356.5319828887147 L 496.8 357.52115632461664 L 492.0 358.3947186968017 L 487.20000000000005 359.063530330566 L 482.4 360.1587727665305 L 477.6 361.45630120710507 L 472.79999999999995 362.59991980096555 L 468.0 362.9141391165391 L 463.2 363.5533117183833 L 458.4 365.04562785208276 L 453.59999999999997 365.7912423190433 L 448.8 366.6070644293473 L 444.0 367.44763217582096 L 439.20000000000005 368.14000887597615 L 434.4 368.9777578378927 L 429.6 370.0499103967775 L 424.79999999999995 370.57201967544813 L 420.0 371.88670352371014 L 415.20000000000005 372.42395163682977 L 410.4 373.20709358064926 L 405.6 373.9678239058173 L 400.79999999999995 374.4793058561306 L 396.0 375.3272503900803 L 391.2 375.5234359329444 L 386.40000000000003 376.06769567774063 L 381.6 377.15395896315295 L 376.8 377.5756762449168 L 372.0 377.67080169124705 L 367.20000000000005 378.66241987718104 L 362.4 380.09619033727637 L 357.6 381.00287771181144 L 352.79999999999995 382.2371897813395 L 348.0 383.22411451547197 L 343.2 383.77265713061144 L 338.4 384.07039336359423 L 333.59999999999997 384.41540450651576 L 328.8 385.23840660699346 L 324.0 386.368070562963 L 319.20000000000005 386.7598942513551 L 314.4 387.9017107325921 L 309.6 388.6193938020326 L 304.79999999999995 389.20400898342575 L 300.0 389.27457773789524 L 295.20000000000005 390.26180803633326 L 290.4 390.81470034693325 L 285.59999999999997 391.4602196098775 L 280.8 391.82876555968096 L 276.0 392.69896720523525 L 271.2 393.1660437356337 L 266.4 394.51597202232784 L 261.59999999999997 394.8267711889663 L 256.79999999999995 395.64630661175056 L 252.0 396.58742578031433 L 247.2 397.85080984521665 L 242.39999999999998 399.5015047777756 L 237.60000000000002 399.9222973946575 L 232.8 400.6489492961583 L 228.0 401.70915271682173 L 223.20000000000002 402.8771087236181 L 218.4 403.95984153845137 L 213.60000000000002 404.41119310377456 L 208.8 405.16977525965325 L 204.0 406.4273914267589 L 199.2 407.66543505539806 L 194.4 408.7813690786383 L 189.60000000000002 409.21136972765726 L 184.8 409.60512740938424 L 180.0 410.35947533441356 L 175.2 411.4489193813633 L 170.4 412.45814829977326 L 165.6 413.6329663825243 L 160.8 414.5540233617428 L 156.0 415.61590800495026 L 151.2 416.5471095366428 L 146.4 417.4205456706365 L 141.60000000000002 418.3021719848531 L 136.8 419.61599079319393 L 132.0 420.1272436332882 L 127.20000000000002 421.2244275781255 L 122.4 422.5603409029429 L 117.6 423.26415733990575 L 112.8 424.1004395150562 L 108.0 425.43886413827306 L 103.2 426.7964863132587 L 98.4 428.52569536098395 L 93.6 430.136215439407 L 88.8 431.84409551741527 L 84.0 433.00580974235214 L 79.19999999999999 434.36872642121483 L 74.39999999999999 435.3551923964858 L 69.6 436.91249766047497 L 64.8 438.53608928192637" style="stroke:rgb(19.6%,53.3%,74.1%);stroke-opacity:1.0;stroke-width:2.0" /></g></g><g class="toyplot-mark-Text" id="t2c1fa8c90ec5481ba97b4734aad88bfc"><g class="toyplot-Series"><g class="toyplot-Datum" transform="translate(444.0,358.3947186968017)"><text x="5.0" y="3.577" style="fill:rgb(19.6%,53.3%,74.1%);fill-opacity:1.0;font-family:helvetica;font-size:14.0px;font-weight:normal;opacity:1;stroke:none;vertical-align:baseline;white-space:pre">Positive</text></g></g></g><g class="toyplot-mark-Plot" style="fill:none" id="t9d7038ab0d7c42a7a2a90555131f3844"><g class="toyplot-Series"><path d="M 1020.0 236.18291350854528 L 1015.1999999999999 236.81592075117857 L 1010.4000000000001 238.00422758716095 L 1005.5999999999999 239.18567672560118 L 1000.8000000000001 239.28580552862906 L 996.0 240.3923722736797 L 991.1999999999999 240.61886857225153 L 986.4000000000001 241.87300254426114 L 981.5999999999999 242.97186387399174 L 976.7999999999998 243.91302912619395 L 972.0 244.85812347744516 L 967.1999999999999 246.00242117614383 L 962.4 247.6529114162888 L 957.6 247.72218178905374 L 952.8000000000001 247.79623957843313 L 948.0 247.2378986163618 L 943.2 248.60831884585747 L 938.4000000000001 248.77456767063066 L 933.6 249.6620152358839 L 928.8 249.7515846299864 L 924.0 250.41774954895436 L 919.2 251.04869297835364 L 914.4000000000001 249.92050004156624 L 909.5999999999999 251.24073825035862 L 904.8 251.9204541566748 L 900.0 252.8042077011793 L 895.2 253.06714701075833 L 890.4000000000001 254.11650350378457 L 885.5999999999999 256.3455938231041 L 880.8 256.8560400647745 L 876.0 257.48722647147315 L 871.2 258.2842919678382 L 866.4 259.1776789552525 L 861.5999999999999 259.9449750667824 L 856.8 261.1517645668828 L 852.0 262.7265555532082 L 847.1999999999999 263.7715731657322 L 842.4 264.5131696912912 L 837.6 265.0419243989327 L 832.8000000000001 265.5052754608218 L 828.0 266.3679012932196 L 823.2 267.03870417692764 L 818.4000000000001 268.04300702224816 L 813.6 268.3124722825277 L 808.8 268.3233369087039 L 804.0 269.0337402831657 L 799.2 270.0375753016957 L 794.4000000000001 270.90075613958504 L 789.5999999999999 271.73378623871463 L 784.8 272.15427181062745 L 780.0 272.89909520856054 L 775.2 273.7357365662969 L 770.4000000000001 275.15698764818535 L 765.5999999999999 275.8868479566242 L 760.8 275.53318311092755 L 756.0 275.52263515621524 L 751.2 276.478942151445 L 746.4 277.5991151108697 L 741.5999999999999 278.3378262542515 L 736.8 278.8427524487123 L 732.0 279.4640214752534 L 727.1999999999999 279.1138703687089 L 722.4 280.7832653717815 L 717.6 281.3597363846635 L 712.8000000000001 282.52470505625155 L 708.0 282.51831663737266 L 703.2 283.54337814951367 L 698.4000000000001 284.1155426479536 L 693.6 284.51674220982375 L 688.8 285.2336632611141 L 684.0 287.4567178766901 L 679.2 287.4716566672039 L 674.4000000000001 287.96316864973943 L 669.5999999999999 287.90102801473535 L 664.8 288.9725215539444 L 660.0 289.5142017404242 L 655.2 290.22505524175347 L 650.4000000000001 292.2947852285101 L 645.5999999999999 293.01200674991105 L 640.8 293.2409486423279 L 636.0 294.1604401969058 L 631.2 295.5945600901317 L 626.4 297.4792166483699 L 621.5999999999999 298.694600814587 L 616.8 299.386639705899 L 612.0 299.92816939127835 L 607.1999999999999 299.044529043936 L 602.4 300.21654435841896 L 597.6 300.8340979802997 L 592.8000000000001 301.14207453728073 L 588.0 301.4473450307379 L 583.2 302.90357116378055 L 578.4000000000001 304.068673584772 L 573.6 304.58669859688723 L 568.8 304.98609644384624 L 564.0 306.1304477945215 L 559.2 306.86081454999373 L 554.4000000000001 306.47306546338615 L 549.5999999999999 307.46044761650194 L 544.8 309.29249321015106 L 540.0 309.88086610041086 L 535.2 311.0807125778665 L 530.4000000000001 311.55902578500826 L 525.5999999999999 313.36715002402815 L 520.8 315.0758506130062 L 516.0 316.4275870300424 L 511.2 317.68061315230995 L 506.40000000000003 319.3528250284291 L 501.6 320.6825403113065 L 496.8 321.89735460963914 L 492.0 323.1887983175895 L 487.20000000000005 323.67154450894424 L 482.4 324.8383622209466 L 477.6 325.7704015357427 L 472.79999999999995 326.343405950407 L 468.0 327.1462866758591 L 463.2 328.11099761570665 L 458.4 329.5759981384281 L 453.59999999999997 330.43999129447116 L 448.8 332.3508823440891 L 444.0 333.33909857487083 L 439.20000000000005 334.03235086968687 L 434.4 334.47977639142556 L 429.6 334.9639732062489 L 424.79999999999995 336.2144106321039 L 420.0 337.8429497368075 L 415.20000000000005 339.39444702067226 L 410.4 341.19492921960097 L 405.6 343.2643646942629 L 400.79999999999995 344.403461371418 L 396.0 344.8511610087066 L 391.2 345.90624930317006 L 386.40000000000003 346.8356268061339 L 381.6 347.6811981401828 L 376.8 349.6973700590918 L 372.0 351.5673485346494 L 367.20000000000005 351.68228013625173 L 362.4 352.2585386248606 L 357.6 354.95345650541975 L 352.79999999999995 357.2858706204121 L 348.0 358.108416013743 L 343.2 358.73502469237366 L 338.4 359.81737473710734 L 333.59999999999997 361.92050581100244 L 328.8 363.04655808340345 L 324.0 363.63075859756617 L 319.20000000000005 364.65538913805847 L 314.4 365.7865494813091 L 309.6 366.94385112472423 L 304.79999999999995 367.2138706738236 L 300.0 367.9259664993836 L 295.20000000000005 368.60894459427965 L 290.4 368.79650082802823 L 285.59999999999997 369.38040134181796 L 280.8 369.9084594971431 L 276.0 371.26515352923894 L 271.2 372.41090594739023 L 266.4 373.5057555368632 L 261.59999999999997 374.69802999696515 L 256.79999999999995 375.19130884028664 L 252.0 376.1318973998791 L 247.2 377.6400386429854 L 242.39999999999998 379.0157610007778 L 237.60000000000002 380.4615145733643 L 232.8 381.5734542821435 L 228.0 382.4477402320023 L 223.20000000000002 383.7259196445505 L 218.4 385.70744929407294 L 213.60000000000002 386.7365608764051 L 208.8 387.77973180683864 L 204.0 388.1017085527478 L 199.2 389.7013082520658 L 194.4 391.18744577023887 L 189.60000000000002 392.65128821591213 L 184.8 394.5573572608901 L 180.0 395.71240905117986 L 175.2 396.94524527108314 L 170.4 398.0731712300994 L 165.6 399.5907195938652 L 160.8 400.80635223769957 L 156.0 402.6310896486007 L 151.2 404.55886373911665 L 146.4 406.44835898453016 L 141.60000000000002 407.606831736626 L 136.8 409.368368927234 L 132.0 411.39374448737976 L 127.20000000000002 412.8369437824316 L 122.4 414.8968068382475 L 117.6 416.0572089278721 L 112.8 417.8299022786575 L 108.0 419.37365919256325 L 103.2 420.9826999878414 L 98.4 423.00471938390643 L 93.6 424.78253602679695 L 88.8 426.7413875704489 L 84.0 428.5036862270686 L 79.19999999999999 430.50563295169053 L 74.39999999999999 432.53384965814956 L 69.6 434.8639606817453 L 64.8 437.4414479498536" style="stroke:rgb(40%,76.1%,64.7%);stroke-opacity:1.0;stroke-width:2.0" /></g></g><g class="toyplot-mark-Text" id="t25ad4f286b3f41f9b4e778c639f52379"><g class="toyplot-Series"><g class="toyplot-Datum" transform="translate(444.0,323.1887983175895)"><text x="5.0" y="3.577" style="fill:rgb(40%,76.1%,64.7%);fill-opacity:1.0;font-family:helvetica;font-size:14.0px;font-weight:normal;opacity:1;stroke:none;vertical-align:baseline;white-space:pre">Low Sex, Neutral</text></g></g></g><g class="toyplot-mark-Plot" style="fill:none" id="t31a5305f47ad4cf49f020c9076726f38"><g class="toyplot-Series"><path d="M 1020.0 323.56070267690455 L 1015.1999999999999 323.5206817732718 L 1010.4000000000001 323.4034150382866 L 1005.5999999999999 323.7160862434061 L 1000.8000000000001 323.73233638970174 L 996.0 324.34338206837884 L 991.1999999999999 324.18152448633884 L 986.4000000000001 325.13552781238826 L 981.5999999999999 325.8551391998029 L 976.7999999999998 324.67588418461094 L 972.0 325.47627419588434 L 967.1999999999999 325.68250096825983 L 962.4 325.83289112774344 L 957.6 326.40712942567853 L 952.8000000000001 327.35489338018823 L 948.0 328.10407901032 L 943.2 329.19958148903146 L 938.4000000000001 329.42515156483375 L 933.6 329.5949422818543 L 928.8 331.1369629139301 L 924.0 331.35666645513254 L 919.2 331.0209490763193 L 914.4000000000001 331.99202312354925 L 909.5999999999999 331.57756662291575 L 904.8 331.4203794072967 L 900.0 331.99243982355756 L 895.2 332.2077039682272 L 890.4000000000001 332.14308008756086 L 885.5999999999999 333.0301014108983 L 880.8 333.73874828373914 L 876.0 333.71136249859364 L 871.2 333.6096872673508 L 866.4 333.66024649626894 L 861.5999999999999 334.0806833833559 L 856.8 334.76173223837975 L 852.0 334.90056681690635 L 847.1999999999999 334.72328178280037 L 842.4 335.48638147357514 L 837.6 335.8814370367252 L 832.8000000000001 336.1286525803997 L 828.0 336.4195490359552 L 823.2 336.6871198335883 L 818.4000000000001 337.0628858696599 L 813.6 337.3830444685835 L 808.8 337.7824269623467 L 804.0 338.5316831029996 L 799.2 339.4627042607817 L 794.4000000000001 339.6836470658763 L 789.5999999999999 339.960736460515 L 784.8 340.4617413391846 L 780.0 340.2588431263799 L 775.2 340.4663190732028 L 770.4000000000001 341.31105520551387 L 765.5999999999999 341.5937813933878 L 760.8 342.4197231219086 L 756.0 342.85954509656875 L 751.2 343.51148778346396 L 746.4 343.42177087051596 L 741.5999999999999 343.5495536359088 L 736.8 344.0261821131197 L 732.0 344.375341505862 L 727.1999999999999 344.7723811383535 L 722.4 344.86469814685347 L 717.6 346.0384170235637 L 712.8000000000001 346.8775281202821 L 708.0 347.1980461306817 L 703.2 347.6456170615518 L 698.4000000000001 349.2691883514889 L 693.6 349.73951419457865 L 688.8 350.10336599956764 L 684.0 350.60626661351796 L 679.2 351.25623814155676 L 674.4000000000001 352.3469148870106 L 669.5999999999999 352.59656989678734 L 664.8 353.4739589164246 L 660.0 354.0843630773947 L 655.2 353.8958234122288 L 650.4000000000001 354.9750266209366 L 645.5999999999999 355.36251915172255 L 640.8 355.68995538046676 L 636.0 356.6420659188343 L 631.2 356.9215347245714 L 626.4 356.84800548181727 L 621.5999999999999 357.4763253956774 L 616.8 357.3104517378459 L 612.0 357.4635446646413 L 607.1999999999999 357.86257137547483 L 602.4 359.13138482036294 L 597.6 359.55718449708536 L 592.8000000000001 360.61230504011365 L 588.0 360.59061854427694 L 583.2 360.47860011867186 L 578.4000000000001 361.3366321915237 L 573.6 362.82762429228256 L 568.8 362.55732833290955 L 564.0 363.5625487436436 L 559.2 364.2550969574759 L 554.4000000000001 365.0410991446259 L 549.5999999999999 365.5759101294106 L 544.8 365.37499690845846 L 540.0 365.7260145926007 L 535.2 365.4491279943701 L 530.4000000000001 366.03552538524 L 525.5999999999999 366.9292242632743 L 520.8 367.80747949569127 L 516.0 368.7751488785339 L 511.2 369.4563643485949 L 506.40000000000003 370.6412133299832 L 501.6 370.4881361040534 L 496.8 370.48445438114084 L 492.0 370.7666833574123 L 487.20000000000005 371.8308109322012 L 482.4 372.9704813287274 L 477.6 372.9764266065816 L 472.79999999999995 373.8359638848928 L 468.0 374.3509493330329 L 463.2 374.4538270836341 L 458.4 374.73952440239896 L 453.59999999999997 375.06449563108885 L 448.8 375.74848986756245 L 444.0 376.28708140606864 L 439.20000000000005 376.40421886317205 L 434.4 377.12163027990795 L 429.6 377.7033687559363 L 424.79999999999995 378.313299224768 L 420.0 378.7805262087483 L 415.20000000000005 379.46951421986944 L 410.4 379.3315170387049 L 405.6 380.0257604102214 L 400.79999999999995 380.4822641582693 L 396.0 380.78220073893283 L 391.2 382.12631044417185 L 386.40000000000003 382.81460185161376 L 381.6 383.1257971260979 L 376.8 383.72147234529257 L 372.0 384.0351474125828 L 367.20000000000005 384.6076657701855 L 362.4 385.36841897133576 L 357.6 385.6921319695159 L 352.79999999999995 386.65582356141937 L 348.0 387.81885870623245 L 343.2 388.45107334973056 L 338.4 388.884732332146 L 333.59999999999997 389.2326997619192 L 328.8 389.6750873117494 L 324.0 390.42561875184253 L 319.20000000000005 391.2824878933323 L 314.4 392.2001778574245 L 309.6 392.8408530782781 L 304.79999999999995 393.58044584979626 L 300.0 394.2471415616285 L 295.20000000000005 395.22247773662684 L 290.4 396.0448978320285 L 285.59999999999997 396.8649097741179 L 280.8 397.53784318641794 L 276.0 398.46624259837944 L 271.2 399.3470818172978 L 266.4 400.212002504716 L 261.59999999999997 400.516177587142 L 256.79999999999995 401.61929980095954 L 252.0 402.5853115744949 L 247.2 403.3639021661433 L 242.39999999999998 404.32880953007157 L 237.60000000000002 405.14540564538737 L 232.8 405.80329878224944 L 228.0 405.65786489700287 L 223.20000000000002 407.05026462287964 L 218.4 407.51326871288717 L 213.60000000000002 407.74880001630646 L 208.8 409.0383865732473 L 204.0 410.3343816619837 L 199.2 411.14967504727514 L 194.4 411.7622501304794 L 189.60000000000002 411.96896463511325 L 184.8 412.9974445202355 L 180.0 413.9573560949207 L 175.2 414.3984310049952 L 170.4 416.0081032364676 L 165.6 416.80148291928083 L 160.8 417.8288037793577 L 156.0 418.4479365676244 L 151.2 419.05144559165103 L 146.4 419.68088571680374 L 141.60000000000002 420.70215348472874 L 136.8 421.52816056229017 L 132.0 422.4706452266255 L 127.20000000000002 423.79917189484905 L 122.4 425.10545029270435 L 117.6 426.44514433085845 L 112.8 426.83135653115914 L 108.0 427.7613807334953 L 103.2 429.044963110238 L 98.4 429.8807156310958 L 93.6 430.8063931187142 L 88.8 431.8972540860538 L 84.0 432.8442080063694 L 79.19999999999999 434.10296367555907 L 74.39999999999999 435.49215490902975 L 69.6 437.21472270897203 L 64.8 438.521903234409" style="stroke:rgb(67.1%,86.7%,64.3%);stroke-opacity:1.0;stroke-width:2.0" /></g></g><g class="toyplot-mark-Text" id="t81265b183828482fb68a939a5da887fc"><g class="toyplot-Series"><g class="toyplot-Datum" transform="translate(444.0,370.7666833574123)"><text x="5.0" y="3.577" style="fill:rgb(67.1%,86.7%,64.3%);fill-opacity:1.0;font-family:helvetica;font-size:14.0px;font-weight:normal;opacity:1;stroke:none;vertical-align:baseline;white-space:pre">Low Sex, Purifying</text></g></g></g><g class="toyplot-mark-Plot" style="fill:none" id="t7bf07cb640db4a8ba1b20c766312f0c2"><g class="toyplot-Series"><path d="M 1020.0 319.16958710361666 L 1015.1999999999999 319.7754357777462 L 1010.4000000000001 319.8449257742633 L 1005.5999999999999 319.7728777721855 L 1000.8000000000001 320.5896064661025 L 996.0 321.32107964089516 L 991.1999999999999 322.38149134970854 L 986.4000000000001 322.61906162838574 L 981.5999999999999 322.52678423798136 L 976.7999999999998 322.61551658781883 L 972.0 322.89203317511647 L 967.1999999999999 323.89041509528766 L 962.4 324.86937712300175 L 957.6 324.59679593319146 L 952.8000000000001 325.3574861512978 L 948.0 325.8321830429734 L 943.2 326.25524323986485 L 938.4000000000001 326.142386402519 L 933.6 326.75131463691025 L 928.8 327.2633263109791 L 924.0 327.3361422511092 L 919.2 327.9557000773472 L 914.4000000000001 327.5003912336561 L 909.5999999999999 328.20267980764845 L 904.8 328.7753691252634 L 900.0 328.8416390519408 L 895.2 329.2813078263165 L 890.4000000000001 329.74960764450253 L 885.5999999999999 329.9181441999605 L 880.8 330.3277402740155 L 876.0 330.22814493832834 L 871.2 331.15345515927197 L 866.4 331.63240329768996 L 861.5999999999999 332.60997422735966 L 856.8 333.0397433231473 L 852.0 333.06572133305906 L 847.1999999999999 332.79279463353294 L 842.4 333.3994735447617 L 837.6 333.77723170791995 L 832.8000000000001 334.53464177743183 L 828.0 334.03996859281045 L 823.2 334.66162589608643 L 818.4000000000001 334.8598635368586 L 813.6 334.4257619664726 L 808.8 335.2261458376446 L 804.0 334.9055063327589 L 799.2 335.1974453442098 L 794.4000000000001 336.0761161359618 L 789.5999999999999 336.3507911902894 L 784.8 335.9573262040266 L 780.0 336.6659993852175 L 775.2 336.61276234270815 L 770.4000000000001 337.1742223228927 L 765.5999999999999 337.25587269838957 L 760.8 338.1402471313302 L 756.0 338.3851018378001 L 751.2 339.0049419045472 L 746.4 339.67681763224624 L 741.5999999999999 340.3105706452147 L 736.8 340.46670776030476 L 732.0 340.72734854912505 L 727.1999999999999 341.3447933954674 L 722.4 341.87402507042657 L 717.6 342.59312103185823 L 712.8000000000001 342.55687090194624 L 708.0 342.89879129354637 L 703.2 343.02231591041857 L 698.4000000000001 343.0127455662442 L 693.6 343.7495642373467 L 688.8 343.84643538983187 L 684.0 344.49967277796236 L 679.2 344.9583615609327 L 674.4000000000001 346.1801930836597 L 669.5999999999999 346.7761533393592 L 664.8 347.06221497621004 L 660.0 348.14473329999214 L 655.2 348.1454851944953 L 650.4000000000001 348.8868747347643 L 645.5999999999999 349.4516236994699 L 640.8 350.6135366133414 L 636.0 351.0115884821574 L 631.2 351.60959766541447 L 626.4 352.25334351051754 L 621.5999999999999 353.4159890969791 L 616.8 354.03638079705973 L 612.0 354.39505515328045 L 607.1999999999999 354.9772269128879 L 602.4 355.32858310926207 L 597.6 355.18370868460573 L 592.8000000000001 355.90293566338664 L 588.0 356.9004759284922 L 583.2 357.7689982132742 L 578.4000000000001 358.33182214254737 L 573.6 359.52109208972985 L 568.8 360.6843080627051 L 564.0 360.9079293010855 L 559.2 361.1180689026354 L 554.4000000000001 360.81161828191983 L 549.5999999999999 361.73295833121455 L 544.8 363.1427110462394 L 540.0 363.74698181832554 L 535.2 364.032011540408 L 530.4000000000001 364.79706172494446 L 525.5999999999999 365.3311813302671 L 520.8 365.51652209076 L 516.0 366.12777273986967 L 511.2 366.89151702626043 L 506.40000000000003 367.5969912119167 L 501.6 367.8913307125162 L 496.8 367.5928924366123 L 492.0 367.6077792717759 L 487.20000000000005 368.5910794511744 L 482.4 369.4623868803896 L 477.6 370.1248945173605 L 472.79999999999995 371.44209065152774 L 468.0 372.2922007724552 L 463.2 373.25934697361663 L 458.4 374.09768865221486 L 453.59999999999997 374.1803017658502 L 448.8 374.3024395230996 L 444.0 374.89617792612654 L 439.20000000000005 375.2151151937113 L 434.4 376.4221452205147 L 429.6 376.9231073602841 L 424.79999999999995 378.1093421756071 L 420.0 379.02026980147826 L 415.20000000000005 379.5337810931868 L 410.4 380.40735471666113 L 405.6 380.9537074722208 L 400.79999999999995 381.4665798552855 L 396.0 381.621337093258 L 391.2 382.53714953379426 L 386.40000000000003 382.91446173768344 L 381.6 384.190225527245 L 376.8 385.1184975998436 L 372.0 385.73881154191173 L 367.20000000000005 386.4762943239325 L 362.4 387.2860395574566 L 357.6 387.8137539699988 L 352.79999999999995 387.87549287551616 L 348.0 388.3199317299452 L 343.2 389.6299239936482 L 338.4 390.16930223266183 L 333.59999999999997 391.0880570483859 L 328.8 391.8129015073975 L 324.0 392.25401812757804 L 319.20000000000005 392.6926698255214 L 314.4 393.4503245845517 L 309.6 394.2881379563074 L 304.79999999999995 395.56988635962705 L 300.0 396.0036828561314 L 295.20000000000005 396.6616407987028 L 290.4 397.4713539857242 L 285.59999999999997 397.9561927781937 L 280.8 398.7429106166072 L 276.0 399.7073419725569 L 271.2 400.23425914757405 L 266.4 401.4165483860714 L 261.59999999999997 402.0661301327439 L 256.79999999999995 403.01203819196695 L 252.0 404.2699592663808 L 247.2 404.63256129580583 L 242.39999999999998 404.9806837111029 L 237.60000000000002 405.49660307170774 L 232.8 406.4838362167351 L 228.0 407.29133603875493 L 223.20000000000002 407.45296081514664 L 218.4 407.94150515974366 L 213.60000000000002 409.14416381529594 L 208.8 410.0590875085973 L 204.0 410.4130289419135 L 199.2 410.8126769265994 L 194.4 411.4076876282847 L 189.60000000000002 412.8407243808243 L 184.8 413.614974497253 L 180.0 414.22472453912656 L 175.2 415.3905143675042 L 170.4 416.2140642749976 L 165.6 416.8733016319545 L 160.8 417.4608529464195 L 156.0 418.16501284199865 L 151.2 419.08765451289366 L 146.4 420.05961131083524 L 141.60000000000002 420.7388406569108 L 136.8 421.55223028823053 L 132.0 422.70483478098237 L 127.20000000000002 423.7222703731518 L 122.4 424.8797024818271 L 117.6 425.87573412589137 L 112.8 427.0381170760125 L 108.0 427.8228249372104 L 103.2 429.0757016673573 L 98.4 429.37367834693157 L 93.6 429.7398295872663 L 88.8 430.9215088548719 L 84.0 431.88259193133956 L 79.19999999999999 433.3131442084151 L 74.39999999999999 434.9819629047515 L 69.6 436.63767911265313 L 64.8 438.42145602252094" style="stroke:rgb(90.2%,96.1%,59.6%);stroke-opacity:1.0;stroke-width:2.0" /></g></g><g class="toyplot-mark-Text" id="t52bfa6e3c0c744ddbf43586d71016ab4"><g class="toyplot-Series"><g class="toyplot-Datum" transform="translate(444.0,367.6077792717759)"><text x="5.0" y="3.577" style="fill:rgb(90.2%,96.1%,59.6%);fill-opacity:1.0;font-family:helvetica;font-size:14.0px;font-weight:normal;opacity:1;stroke:none;vertical-align:baseline;white-space:pre">Low Sex Postiive</text></g></g></g><g class="toyplot-mark-Plot" style="fill:none" id="t069668855ec34de384da20ebee8efadf"><g class="toyplot-Series"><path d="M 1020.0 386.72808377481135 L 1015.1999999999999 386.27341785112776 L 1010.4000000000001 386.68290183570014 L 1005.5999999999999 386.0001941807756 L 1000.8000000000001 385.2005661327945 L 996.0 385.53882837759664 L 991.1999999999999 386.7533070690374 L 986.4000000000001 386.3694625290319 L 981.5999999999999 387.03878577294614 L 976.7999999999998 386.6645932866147 L 972.0 386.2850315210662 L 967.1999999999999 386.16189057282855 L 962.4 386.55068681814697 L 957.6 386.606207781546 L 952.8000000000001 386.09615166431837 L 948.0 386.36021554929465 L 943.2 386.4668698225519 L 938.4000000000001 386.4219619163342 L 933.6 386.1938971443808 L 928.8 386.03563882157334 L 924.0 384.5836535566877 L 919.2 385.2144130507537 L 914.4000000000001 385.83417630787665 L 909.5999999999999 386.2066304643474 L 904.8 387.0824996041442 L 900.0 386.46083216237633 L 895.2 386.24451379020184 L 890.4000000000001 385.87447459734983 L 885.5999999999999 385.4041662010551 L 880.8 384.86712878765985 L 876.0 384.4985944997847 L 871.2 384.0396521875677 L 866.4 384.6117291109892 L 861.5999999999999 383.9396559723741 L 856.8 383.45653167433187 L 852.0 383.81586408234483 L 847.1999999999999 384.26120123905815 L 842.4 385.30397433222555 L 837.6 385.0414390558732 L 832.8000000000001 384.44344188081544 L 828.0 385.183742779283 L 823.2 385.82290594358096 L 818.4000000000001 385.574876635454 L 813.6 386.906330850048 L 808.8 386.2423131142641 L 804.0 386.9800210743998 L 799.2 386.137977826436 L 794.4000000000001 384.9258623583647 L 789.5999999999999 385.6334302078404 L 784.8 385.31160555772897 L 780.0 384.9471137608015 L 775.2 384.8864908816442 L 770.4000000000001 384.0844848975446 L 765.5999999999999 384.05574166523826 L 760.8 383.181607715703 L 756.0 384.51762775749137 L 751.2 384.24471955962173 L 746.4 384.042054370399 L 741.5999999999999 384.2167580915814 L 736.8 383.47043043643976 L 732.0 383.4381515869159 L 727.1999999999999 383.27676659396457 L 722.4 383.3560553688579 L 717.6 383.81233399291904 L 712.8000000000001 383.5049672150663 L 708.0 383.1251196840558 L 703.2 382.9118353190058 L 698.4000000000001 384.3058201049656 L 693.6 384.98821289664744 L 688.8 384.8654747667513 L 684.0 383.4790726337494 L 679.2 383.53583910970144 L 674.4000000000001 384.2654166830604 L 669.5999999999999 384.20540738779385 L 664.8 385.55134486752013 L 660.0 383.82198208186935 L 655.2 383.8545215160658 L 650.4000000000001 384.4343182923482 L 645.5999999999999 383.9456353240998 L 640.8 384.4737002781717 L 636.0 384.0538768508501 L 631.2 383.285204142245 L 626.4 384.3284067860486 L 621.5999999999999 385.1520685378198 L 616.8 385.2222838954162 L 612.0 385.49463503362836 L 607.1999999999999 386.9957580543002 L 602.4 385.97657708280923 L 597.6 385.63331238540053 L 592.8000000000001 384.3696357188706 L 588.0 383.6000772556585 L 583.2 383.21322017419067 L 578.4000000000001 384.0771642313948 L 573.6 384.354346389518 L 568.8 383.6228100556335 L 564.0 384.18018375726905 L 559.2 384.0817922932109 L 554.4000000000001 383.5809158449918 L 549.5999999999999 383.7302718508306 L 544.8 383.77754942575604 L 540.0 383.06476301673877 L 535.2 383.35909595654414 L 530.4000000000001 384.60271964347857 L 525.5999999999999 384.04346078170937 L 520.8 383.59224076528477 L 516.0 383.8680728644066 L 511.2 384.56249103568825 L 506.40000000000003 384.3257782580853 L 501.6 385.11846243535075 L 496.8 387.1624229779246 L 492.0 386.7291572324346 L 487.20000000000005 387.7960832628595 L 482.4 387.4059495777657 L 477.6 387.16108224822653 L 472.79999999999995 385.6906267082481 L 468.0 384.8658020398351 L 463.2 384.90591458376 L 458.4 384.56703680423004 L 453.59999999999997 383.9255389667034 L 448.8 384.5109855735258 L 444.0 385.16904217046425 L 439.20000000000005 385.29436346900695 L 434.4 385.4111976376637 L 429.6 384.74840480055093 L 424.79999999999995 385.19992647942524 L 420.0 385.3121425319824 L 415.20000000000005 385.1056864483432 L 410.4 385.1612268710958 L 405.6 385.6638998868685 L 400.79999999999995 385.41117243828467 L 396.0 386.3053871106016 L 391.2 386.6432826128736 L 386.40000000000003 386.31686693865123 L 381.6 386.22820943797774 L 376.8 386.4241412718451 L 372.0 386.78565077381427 L 367.20000000000005 386.78447268301795 L 362.4 387.1765549670914 L 357.6 388.0026488638557 L 352.79999999999995 388.3208911201467 L 348.0 389.12087667627077 L 343.2 389.279095498954 L 338.4 390.5850981161359 L 333.59999999999997 390.9270066447829 L 328.8 391.3978648679323 L 324.0 391.23373591646487 L 319.20000000000005 391.89901399613086 L 314.4 391.94553307054747 L 309.6 391.6739762191494 L 304.79999999999995 392.0920545423528 L 300.0 391.85658652731274 L 295.20000000000005 392.337426479043 L 290.4 393.1942547116291 L 285.59999999999997 393.1344970824703 L 280.8 392.7130994774373 L 276.0 393.12518799132414 L 271.2 393.8841069748617 L 266.4 393.99351503423117 L 261.59999999999997 395.2163408842311 L 256.79999999999995 395.340708747474 L 252.0 395.43077843772534 L 247.2 396.65159085198894 L 242.39999999999998 397.486968418844 L 237.60000000000002 398.6388273978139 L 232.8 399.30203572868385 L 228.0 399.90736735104946 L 223.20000000000002 399.91418200323517 L 218.4 400.52720721839535 L 213.60000000000002 401.86714435768647 L 208.8 402.172707953243 L 204.0 402.9556047630265 L 199.2 402.5139859471628 L 194.4 403.5458455170992 L 189.60000000000002 403.32543800632936 L 184.8 403.5966740736242 L 180.0 404.547599799639 L 175.2 405.07378774734343 L 170.4 405.60299696132347 L 165.6 406.14578425962105 L 160.8 406.8129130024826 L 156.0 407.842367602691 L 151.2 408.2940436015647 L 146.4 409.09946827702646 L 141.60000000000002 410.4144740374393 L 136.8 411.09550276151015 L 132.0 412.5452242311179 L 127.20000000000002 413.96005431458354 L 122.4 415.4321791523552 L 117.6 416.74085872707184 L 112.8 418.5068388144031 L 108.0 419.9091096501189 L 103.2 421.3210030547471 L 98.4 422.9803540618092 L 93.6 425.18733544736284 L 88.8 427.03822647595007 L 84.0 428.7964410762973 L 79.19999999999999 430.6892055301897 L 74.39999999999999 432.68522658221855 L 69.6 435.5096250287664 L 64.8 437.622105102229" style="stroke:rgb(100%,100%,74.9%);stroke-opacity:1.0;stroke-width:2.0" /></g></g><g class="toyplot-mark-Text" id="t55dca7389cb74ab78d414fa6d65b347c"><g class="toyplot-Series"><g class="toyplot-Datum" transform="translate(444.0,386.7291572324346)"><text x="5.0" y="3.577" style="fill:rgb(100%,100%,74.9%);fill-opacity:1.0;font-family:helvetica;font-size:14.0px;font-weight:normal;opacity:1;stroke:none;vertical-align:baseline;white-space:pre">Med Sex Neutral</text></g></g></g><g class="toyplot-mark-Plot" style="fill:none" id="t8b6da573c8244b7aae8d2a2d34f34934"><g class="toyplot-Series"><path d="M 1020.0 406.4597943822496 L 1015.1999999999999 407.10605702030676 L 1010.4000000000001 407.134716822358 L 1005.5999999999999 407.0010236093706 L 1000.8000000000001 406.32082524607006 L 996.0 407.3113099715546 L 991.1999999999999 407.3933165294388 L 986.4000000000001 407.09054456337793 L 981.5999999999999 407.06150002824603 L 976.7999999999998 407.2483193731023 L 972.0 407.11190545711696 L 967.1999999999999 406.9829642702402 L 962.4 407.8120777636214 L 957.6 407.90559345228905 L 952.8000000000001 408.3197847871136 L 948.0 407.5934879311015 L 943.2 407.08545816982695 L 938.4000000000001 407.7631025238189 L 933.6 407.7487611399142 L 928.8 407.66014885145495 L 924.0 407.3695232603335 L 919.2 407.7248971637674 L 914.4000000000001 407.79829663304537 L 909.5999999999999 408.0317390045753 L 904.8 408.19514787638184 L 900.0 407.98486433835774 L 895.2 407.42137047108156 L 890.4000000000001 407.49595147428914 L 885.5999999999999 407.35482981199885 L 880.8 407.1774635344405 L 876.0 407.5384802604591 L 871.2 408.12819697093994 L 866.4 407.8273655653989 L 861.5999999999999 408.31820137909045 L 856.8 407.8908792490342 L 852.0 407.825890149148 L 847.1999999999999 407.36120585112025 L 842.4 407.628783599786 L 837.6 406.94417837326216 L 832.8000000000001 406.2540710927885 L 828.0 406.0981662316018 L 823.2 406.86552987568257 L 818.4000000000001 406.24375110265214 L 813.6 405.8977340604861 L 808.8 406.024166855381 L 804.0 406.6615238708146 L 799.2 406.8986595260608 L 794.4000000000001 406.7889167703131 L 789.5999999999999 406.93854029068103 L 784.8 407.0526238985843 L 780.0 406.78872827114077 L 775.2 406.5723705588282 L 770.4000000000001 406.6754238176802 L 765.5999999999999 406.49044984114846 L 760.8 406.39334196274456 L 756.0 407.3158679498315 L 751.2 407.83372468174076 L 746.4 407.5626440888622 L 741.5999999999999 407.7210224205364 L 736.8 407.4929705833289 L 732.0 407.6026374501075 L 727.1999999999999 408.11419008885093 L 722.4 407.8380251980309 L 717.6 408.0853477190979 L 712.8000000000001 408.3076407577824 L 708.0 408.295055073799 L 703.2 408.4723972048937 L 698.4000000000001 407.8587713799515 L 693.6 408.53026185506445 L 688.8 408.6148519516243 L 684.0 407.9340933358357 L 679.2 407.7158166511206 L 674.4000000000001 407.7247396390016 L 669.5999999999999 407.66742750162734 L 664.8 407.87208379601054 L 660.0 407.8490511175487 L 655.2 408.1164313390484 L 650.4000000000001 408.7001188285182 L 645.5999999999999 409.4654426976968 L 640.8 409.52008480045737 L 636.0 409.18936747075946 L 631.2 409.1259895494638 L 626.4 408.54800953461285 L 621.5999999999999 408.7100962569848 L 616.8 408.71523998012117 L 612.0 408.67527569975556 L 607.1999999999999 408.7245076265855 L 602.4 407.7881302364413 L 597.6 407.7616855312812 L 592.8000000000001 407.8426503521998 L 588.0 408.06141387761664 L 583.2 407.05979938632333 L 578.4000000000001 407.7149928820651 L 573.6 407.6829559401701 L 568.8 407.6245047911089 L 564.0 407.67352575660965 L 559.2 406.99279357968237 L 554.4000000000001 406.7165303433057 L 549.5999999999999 407.58993636861373 L 544.8 407.99814145959726 L 540.0 408.73743716879943 L 535.2 409.067437260717 L 530.4000000000001 409.2248200379188 L 525.5999999999999 409.1440557852838 L 520.8 409.06874432710975 L 516.0 409.57145513094275 L 511.2 409.8564238494963 L 506.40000000000003 410.3144346440868 L 501.6 409.48649637327065 L 496.8 409.5007138247573 L 492.0 409.3390992857117 L 487.20000000000005 408.7036702541341 L 482.4 409.30126394236237 L 477.6 409.07575897964284 L 472.79999999999995 408.762771750354 L 468.0 409.04240269875834 L 463.2 408.7864480663572 L 458.4 408.972223538954 L 453.59999999999997 408.665537883944 L 448.8 408.94868115319116 L 444.0 408.82900873148856 L 439.20000000000005 408.8940991806844 L 434.4 408.121830780668 L 429.6 408.08221524274506 L 424.79999999999995 407.65129194150865 L 420.0 408.23921570581695 L 415.20000000000005 408.5228155967821 L 410.4 408.5495643216319 L 405.6 408.1354950160475 L 400.79999999999995 408.32275304434916 L 396.0 407.97162325002733 L 391.2 407.655943968867 L 386.40000000000003 407.70924138131676 L 381.6 407.92399856324016 L 376.8 409.23309202944125 L 372.0 409.0311890927533 L 367.20000000000005 409.4698481816882 L 362.4 409.3223435393716 L 357.6 409.4646998829893 L 352.79999999999995 410.0931999936144 L 348.0 410.58664594825825 L 343.2 410.0044457603907 L 338.4 409.51072336798364 L 333.59999999999997 409.66861837292316 L 328.8 410.24546642238795 L 324.0 410.03082804642804 L 319.20000000000005 409.82453754979963 L 314.4 409.1220053406986 L 309.6 408.9158660388525 L 304.79999999999995 409.732190446333 L 300.0 409.3679595203395 L 295.20000000000005 409.7137953565417 L 290.4 409.69034637872886 L 285.59999999999997 410.24716335489984 L 280.8 411.01571926353506 L 276.0 411.0362201032698 L 271.2 411.2806790385658 L 266.4 411.9362402011674 L 261.59999999999997 411.75471082946706 L 256.79999999999995 413.1024776087568 L 252.0 414.45997015899775 L 247.2 414.0910526144054 L 242.39999999999998 414.34776072491184 L 237.60000000000002 413.8937963018149 L 232.8 414.4859977336801 L 228.0 414.51258241896903 L 223.20000000000002 414.2853200460492 L 218.4 414.64059481225394 L 213.60000000000002 414.9082724498429 L 208.8 415.5514441687049 L 204.0 415.24667160609897 L 199.2 415.53443677454067 L 194.4 416.4446201237202 L 189.60000000000002 416.8278338979337 L 184.8 417.3370070683622 L 180.0 417.2409119774767 L 175.2 418.10538862943207 L 170.4 418.7077551480956 L 165.6 419.26253807899843 L 160.8 419.3393553578173 L 156.0 420.1325647254449 L 151.2 420.7172250811232 L 146.4 420.86513472556123 L 141.60000000000002 421.8546801365812 L 136.8 421.862822752146 L 132.0 422.56967493627826 L 127.20000000000002 423.524756054883 L 122.4 423.97350005883476 L 117.6 424.61954190877464 L 112.8 425.81491874920624 L 108.0 427.24001428456444 L 103.2 428.2836468387177 L 98.4 429.0432455195009 L 93.6 430.5886862784904 L 88.8 431.50666237956295 L 84.0 432.83608186623843 L 79.19999999999999 433.804345089894 L 74.39999999999999 435.27568546353837 L 69.6 436.53899155583207 L 64.8 438.3624028252664" style="stroke:rgb(99.6%,87.8%,54.5%);stroke-opacity:1.0;stroke-width:2.0" /></g></g><g class="toyplot-mark-Text" id="te87e83a182674986876367c4d0b77fcc"><g class="toyplot-Series"><g class="toyplot-Datum" transform="translate(444.0,409.3390992857117)"><text x="5.0" y="3.577" style="fill:rgb(99.6%,87.8%,54.5%);fill-opacity:1.0;font-family:helvetica;font-size:14.0px;font-weight:normal;opacity:1;stroke:none;vertical-align:baseline;white-space:pre">Med Sex, Purifying</text></g></g></g><g class="toyplot-mark-Plot" style="fill:none" id="t0a6283fe4ebc41a2bcf81a91f8c732a2"><g class="toyplot-Series"><path d="M 1020.0 398.50854528120493 L 1015.1999999999999 397.6430861413276 L 1010.4000000000001 397.4529362335352 L 1005.5999999999999 396.6758911339327 L 1000.8000000000001 396.5129827052272 L 996.0 397.425932396645 L 991.1999999999999 397.3839530244657 L 986.4000000000001 397.08843593974564 L 981.5999999999999 398.2203203352497 L 976.7999999999998 398.94859494860907 L 972.0 399.3893144127897 L 967.1999999999999 399.20849148711585 L 962.4 399.39934096593754 L 957.6 399.5331380149688 L 952.8000000000001 399.5643172855993 L 948.0 399.57135883771514 L 943.2 399.4091207702508 L 938.4000000000001 399.85853950281313 L 933.6 400.4779898333725 L 928.8 400.2910426908438 L 924.0 400.9056089641998 L 919.2 401.60957164512865 L 914.4000000000001 401.8254777371311 L 909.5999999999999 401.5589844127776 L 904.8 402.70971566485997 L 900.0 402.84675244150066 L 895.2 403.4132534871923 L 890.4000000000001 403.1398688161525 L 885.5999999999999 403.254821239846 L 880.8 403.36059946516605 L 876.0 403.34900412560495 L 871.2 402.78456620101474 L 866.4 402.2276990135975 L 861.5999999999999 402.27469380035126 L 856.8 401.96522101039784 L 852.0 400.89899229743367 L 847.1999999999999 400.68075515474874 L 842.4 401.31721414710063 L 837.6 401.22834387528854 L 832.8000000000001 401.4108633291648 L 828.0 400.7551413633676 L 823.2 401.0480301606589 L 818.4000000000001 401.194790219054 L 813.6 400.91694327003836 L 808.8 401.359884560239 L 804.0 401.0073356286393 L 799.2 401.1670049595029 L 794.4000000000001 401.9324308331356 L 789.5999999999999 401.81623474718134 L 784.8 401.912693947715 L 780.0 402.54445537345873 L 775.2 402.65641735798005 L 770.4000000000001 402.18365672043075 L 765.5999999999999 402.7048934020207 L 760.8 402.7266610230128 L 756.0 403.16806649201277 L 751.2 402.62132070373343 L 746.4 402.84653985575096 L 741.5999999999999 402.637912153036 L 736.8 401.29347042300435 L 732.0 400.9158091215922 L 727.1999999999999 400.52752784458403 L 722.4 401.08004725560795 L 717.6 400.3918146753003 L 712.8000000000001 400.3974660623619 L 708.0 400.2522449883432 L 703.2 400.45739734287076 L 698.4000000000001 401.08256285157876 L 693.6 401.39497010521706 L 688.8 400.81610104898533 L 684.0 401.10001033026913 L 679.2 401.9148117708683 L 674.4000000000001 402.8362450291189 L 669.5999999999999 403.5630612026241 L 664.8 403.571794173653 L 660.0 402.1466382210323 L 655.2 402.02797006293997 L 650.4000000000001 402.630868794865 L 645.5999999999999 402.614638124829 L 640.8 402.7651839062335 L 636.0 402.6958350869444 L 631.2 403.0904278589881 L 626.4 402.9114340623758 L 621.5999999999999 403.214681495146 L 616.8 403.46735561650445 L 612.0 403.8619297839556 L 607.1999999999999 403.43667717007014 L 602.4 402.6356346145505 L 597.6 402.447545195881 L 592.8000000000001 402.91892345658056 L 588.0 403.55012898402384 L 583.2 403.8789701276516 L 578.4000000000001 404.6527149922905 L 573.6 405.2994475706831 L 568.8 405.3815085201477 L 564.0 405.32005529827944 L 559.2 405.76300158457735 L 554.4000000000001 405.97770115321464 L 549.5999999999999 405.8659881920158 L 544.8 406.50078907766505 L 540.0 406.27071866591785 L 535.2 405.8082655226507 L 530.4000000000001 405.0983183865612 L 525.5999999999999 406.0146085282793 L 520.8 405.59046243945534 L 516.0 405.8909283083271 L 511.2 406.20537706308005 L 506.40000000000003 405.9883506855837 L 501.6 405.9595152843516 L 496.8 405.2872400967983 L 492.0 405.8132284248159 L 487.20000000000005 406.1443132901305 L 482.4 407.0132584485688 L 477.6 406.72727997444446 L 472.79999999999995 406.8549241180933 L 468.0 406.88658469145224 L 463.2 406.5467752156549 L 458.4 406.57609460584956 L 453.59999999999997 406.05461665109175 L 448.8 406.07057718257806 L 444.0 405.1127434784145 L 439.20000000000005 404.85933599042494 L 434.4 404.34136202288266 L 429.6 404.4546031587866 L 424.79999999999995 404.25063899002 L 420.0 404.5795781371059 L 415.20000000000005 404.7742627126922 L 410.4 404.09140740028795 L 405.6 404.16778142478677 L 400.79999999999995 404.6580768741058 L 396.0 405.1970655213055 L 391.2 405.84259616351187 L 386.40000000000003 405.8430392942603 L 381.6 406.2700492416915 L 376.8 406.2954066303017 L 372.0 406.9180997688982 L 367.20000000000005 407.2420236161308 L 362.4 407.72496228826066 L 357.6 406.795241398193 L 352.79999999999995 406.702934183774 L 348.0 406.2489744693454 L 343.2 406.53675060045606 L 338.4 407.0204228697387 L 333.59999999999997 407.07191166261055 L 328.8 407.77759096675624 L 324.0 407.9902238316534 L 319.20000000000005 408.6285374261973 L 314.4 409.2132551331695 L 309.6 410.08426498237776 L 304.79999999999995 410.6639709929426 L 300.0 410.32124545403485 L 295.20000000000005 410.1169749070583 L 290.4 410.11922049865643 L 285.59999999999997 410.87756943331954 L 280.8 410.7547120888725 L 276.0 411.3835660096601 L 271.2 411.9445042247054 L 266.4 412.3516081064127 L 261.59999999999997 412.6484575695941 L 256.79999999999995 412.979030445394 L 252.0 413.6948656161467 L 247.2 413.1025034690531 L 242.39999999999998 413.0619451120071 L 237.60000000000002 413.51538213069 L 232.8 414.12608687695933 L 228.0 413.71158289804106 L 223.20000000000002 414.1794829046599 L 218.4 415.0892257454303 L 213.60000000000002 415.3745436563851 L 208.8 415.39779830571626 L 204.0 415.7842517079037 L 199.2 415.56989157886886 L 194.4 415.6185357746391 L 189.60000000000002 416.3202214146052 L 184.8 416.48213157951903 L 180.0 417.4557446867033 L 175.2 418.52858919968463 L 170.4 418.64966066593837 L 165.6 419.1144322178994 L 160.8 419.6541884672586 L 156.0 420.3506673245922 L 151.2 421.2795125482804 L 146.4 421.30015967001594 L 141.60000000000002 421.6139789566024 L 136.8 422.6816214069712 L 132.0 423.0942590826611 L 127.20000000000002 423.94151764924766 L 122.4 424.6842214022755 L 117.6 425.0790978069816 L 112.8 426.02153372142834 L 108.0 426.538642988963 L 103.2 427.387102888608 L 98.4 429.0318172367708 L 93.6 430.53030476852973 L 88.8 431.7748850300331 L 84.0 433.27361829488365 L 79.19999999999999 434.48540129462646 L 74.39999999999999 435.8307244685891 L 69.6 437.1039373026446 L 64.8 438.3864545235944" style="stroke:rgb(99.2%,68.2%,38%);stroke-opacity:1.0;stroke-width:2.0" /></g></g><g class="toyplot-mark-Text" id="td983e9d7aa2d473caf582a4814b0e53a"><g class="toyplot-Series"><g class="toyplot-Datum" transform="translate(444.0,405.8132284248159)"><text x="5.0" y="3.577" style="fill:rgb(99.2%,68.2%,38%);fill-opacity:1.0;font-family:helvetica;font-size:14.0px;font-weight:normal;opacity:1;stroke:none;vertical-align:baseline;white-space:pre">Med Sex, Positive</text></g></g></g><g class="toyplot-mark-Plot" style="fill:none" id="tcca5ff676b3b42178ca8e09ec668d7f6"><g class="toyplot-Series"><path d="M 1020.0 413.48089126406387 L 1015.1999999999999 413.0459171200866 L 1010.4000000000001 413.4961148291196 L 1005.5999999999999 412.2578439317568 L 1000.8000000000001 411.9894844162164 L 996.0 411.46438207820336 L 991.1999999999999 411.3642648912137 L 986.4000000000001 411.24699346123987 L 981.5999999999999 411.4411603105714 L 976.7999999999998 411.85921041214675 L 972.0 412.4119692608253 L 967.1999999999999 412.61490410155096 L 962.4 413.21485667996484 L 957.6 412.4045313876363 L 952.8000000000001 412.2589632675329 L 948.0 411.9618057710876 L 943.2 412.41052435282324 L 938.4000000000001 413.3443119384564 L 933.6 413.2178253481677 L 928.8 412.279979541756 L 924.0 413.35571730170705 L 919.2 412.75024235099625 L 914.4000000000001 413.6024330243371 L 909.5999999999999 413.16318690919024 L 904.8 413.68292092696646 L 900.0 414.11279462637907 L 895.2 414.9014559459923 L 890.4000000000001 415.24238792170047 L 885.5999999999999 414.13584913863986 L 880.8 414.55690226030663 L 876.0 414.7529016714203 L 871.2 414.01810945525807 L 866.4 414.38147561608844 L 861.5999999999999 414.68227474817996 L 856.8 414.6659907353196 L 852.0 414.9574964374858 L 847.1999999999999 413.5386590174984 L 842.4 412.8230307493004 L 837.6 412.8258011521345 L 832.8000000000001 412.87021254985206 L 828.0 412.52050690121274 L 823.2 412.4747756936947 L 818.4000000000001 413.0239002898872 L 813.6 413.0009546386829 L 808.8 413.4305577232267 L 804.0 412.63307164012025 L 799.2 413.52825318956934 L 794.4000000000001 413.18827369255564 L 789.5999999999999 413.33418872161786 L 784.8 413.2124554561305 L 780.0 413.27307112314185 L 775.2 413.65594248029043 L 770.4000000000001 413.4387512053818 L 765.5999999999999 413.04968327579354 L 760.8 412.5641714697259 L 756.0 412.700649723411 L 751.2 411.43991738405833 L 746.4 410.8610149667919 L 741.5999999999999 410.99531214360167 L 736.8 411.57299641814666 L 732.0 412.46615210172365 L 727.1999999999999 413.15973267332794 L 722.4 413.9558195083079 L 717.6 413.5696412109664 L 712.8000000000001 413.2979034542992 L 708.0 413.60224646687016 L 703.2 412.92202400547467 L 698.4000000000001 412.49308201898964 L 693.6 412.48836320108825 L 688.8 413.2741955193989 L 684.0 412.6281461764719 L 679.2 412.2501333294771 L 674.4000000000001 412.8778047220004 L 669.5999999999999 413.78744413084246 L 664.8 413.60632246555275 L 660.0 413.5130045877064 L 655.2 413.57524447910293 L 650.4000000000001 413.45840974521917 L 645.5999999999999 413.32879883835926 L 640.8 414.14640420909666 L 636.0 414.9193542041889 L 631.2 415.6318797008697 L 626.4 415.08843321721764 L 621.5999999999999 415.34498773917005 L 616.8 415.7514739459036 L 612.0 414.5240907547646 L 607.1999999999999 414.46918405798647 L 602.4 413.7646804406115 L 597.6 414.4628391536964 L 592.8000000000001 414.2504275993114 L 588.0 414.3651956233903 L 583.2 413.7342473811292 L 578.4000000000001 413.47367555204517 L 573.6 414.2267495467157 L 568.8 414.0805790462403 L 564.0 413.27027457969973 L 559.2 414.3220443343169 L 554.4000000000001 414.4466947796155 L 549.5999999999999 413.9809137296302 L 544.8 414.7325020042169 L 540.0 414.80105843010006 L 535.2 414.62266482277306 L 530.4000000000001 413.4144164451174 L 525.5999999999999 412.3392845558825 L 520.8 412.42950829387854 L 516.0 412.9094844352268 L 511.2 413.4970595675828 L 506.40000000000003 413.1958225144793 L 501.6 412.80428833137904 L 496.8 412.6967790905426 L 492.0 412.80035649949525 L 487.20000000000005 413.0349216070823 L 482.4 413.00659157738886 L 477.6 412.53567591048625 L 472.79999999999995 412.26204720618836 L 468.0 413.19543572703145 L 463.2 414.26115758173125 L 458.4 414.7641220383361 L 453.59999999999997 414.27208546912556 L 448.8 414.26965624522353 L 444.0 414.385796180285 L 439.20000000000005 413.5588716528515 L 434.4 413.6138735398704 L 429.6 412.59315539450137 L 424.79999999999995 412.1468640137536 L 420.0 411.5579641350038 L 415.20000000000005 410.99611850898395 L 410.4 410.9805011588915 L 405.6 412.0189534708974 L 400.79999999999995 412.3393877839999 L 396.0 412.27438648871237 L 391.2 412.24522836364525 L 386.40000000000003 412.38398212618614 L 381.6 412.74081102495234 L 376.8 413.01014865884787 L 372.0 412.85278645059645 L 367.20000000000005 412.64518846841503 L 362.4 412.05769962012187 L 357.6 412.96129289513533 L 352.79999999999995 413.07887219149137 L 348.0 412.96487726194914 L 343.2 412.55783532307674 L 338.4 412.8178023097082 L 333.59999999999997 413.04278239639797 L 328.8 413.26467732838535 L 324.0 412.66562966326813 L 319.20000000000005 412.81003079327684 L 314.4 412.3595454254606 L 309.6 412.49860270832875 L 304.79999999999995 412.3173226049666 L 300.0 412.4498326780513 L 295.20000000000005 411.9856614357107 L 290.4 412.073457546443 L 285.59999999999997 411.98760496452593 L 280.8 412.131580520502 L 276.0 413.0261867902464 L 271.2 412.7175341192242 L 266.4 412.3385993621211 L 261.59999999999997 411.3676128111216 L 256.79999999999995 412.3399727170959 L 252.0 413.4966366853756 L 247.2 413.5367940558304 L 242.39999999999998 413.4222008264679 L 237.60000000000002 413.626039461501 L 232.8 413.79688361845785 L 228.0 414.09476001156236 L 223.20000000000002 413.03782796432387 L 218.4 413.66086901137237 L 213.60000000000002 413.8595021263317 L 208.8 413.3897958319138 L 204.0 413.0219949823466 L 199.2 412.75498098711705 L 194.4 412.73335528859144 L 189.60000000000002 413.62348784027665 L 184.8 414.0422287438547 L 180.0 413.769494494852 L 175.2 414.183427384498 L 170.4 415.5132576569878 L 165.6 416.3153681216935 L 160.8 416.64229073700375 L 156.0 417.328726541708 L 151.2 417.49241154677253 L 146.4 417.9169024271488 L 141.60000000000002 417.6961445906774 L 136.8 418.61608268284334 L 132.0 419.23289179303333 L 127.20000000000002 419.98482036909144 L 122.4 420.66349973515025 L 117.6 421.5249526100062 L 112.8 423.01212378124603 L 108.0 424.2709767883959 L 103.2 425.8742912254872 L 98.4 426.75255507363465 L 93.6 427.35653060590874 L 88.8 428.7948333359622 L 84.0 430.04046391187313 L 79.19999999999999 431.34278595250817 L 74.39999999999999 433.3940444012214 L 69.6 435.35827255210427 L 64.8 437.79193289359387" style="stroke:rgb(95.7%,42.7%,26.3%);stroke-opacity:1.0;stroke-width:2.0" /></g></g><g class="toyplot-mark-Text" id="tf59fb0cceba54d6388de3ab7773d0f69"><g class="toyplot-Series"><g class="toyplot-Datum" transform="translate(444.0,412.80035649949525)"><text x="5.0" y="3.577" style="fill:rgb(95.7%,42.7%,26.3%);fill-opacity:1.0;font-family:helvetica;font-size:14.0px;font-weight:normal;opacity:1;stroke:none;vertical-align:baseline;white-space:pre">High Sex, Neutral</text></g></g></g><g class="toyplot-mark-Plot" style="fill:none" id="t5575b0f7ae5447f7a866c78ab770eab2"><g class="toyplot-Series"><path d="M 1020.0 423.8068375537939 L 1015.1999999999999 424.1711752945567 L 1010.4000000000001 424.02464643582704 L 1005.5999999999999 423.9411564483597 L 1000.8000000000001 424.0176282747108 L 996.0 424.37568874717294 L 991.1999999999999 423.6639704367349 L 986.4000000000001 423.9221245671538 L 981.5999999999999 423.7243086022693 L 976.7999999999998 423.42051725451756 L 972.0 422.6384190347563 L 967.1999999999999 423.13552743720425 L 962.4 423.56552152900616 L 957.6 423.2183762402476 L 952.8000000000001 423.1708186610366 L 948.0 423.31323621379005 L 943.2 424.1080364517796 L 938.4000000000001 424.34191832314366 L 933.6 424.23543572346824 L 928.8 424.7071203239011 L 924.0 424.711842715257 L 919.2 423.73189116338875 L 914.4000000000001 423.75761614164645 L 909.5999999999999 423.5898455790516 L 904.8 424.1025486094078 L 900.0 423.45929329528917 L 895.2 422.78843155848716 L 890.4000000000001 422.7415439102902 L 885.5999999999999 423.32881059223865 L 880.8 423.30432493944596 L 876.0 423.4924774435295 L 871.2 423.04659330039345 L 866.4 423.2188126852515 L 861.5999999999999 423.6394485287386 L 856.8 423.74738997091976 L 852.0 423.42113006799076 L 847.1999999999999 422.50276908353163 L 842.4 422.8086042882134 L 837.6 422.8927361736912 L 832.8000000000001 423.04926245589337 L 828.0 423.499044030253 L 823.2 423.096855849833 L 818.4000000000001 423.1527398522994 L 813.6 423.25041081919585 L 808.8 422.9943675313321 L 804.0 423.3018766237196 L 799.2 423.29556114876897 L 794.4000000000001 423.4201693758886 L 789.5999999999999 423.06490846864637 L 784.8 422.6417253476279 L 780.0 422.6671935170639 L 775.2 422.32634928985414 L 770.4000000000001 423.31313500419856 L 765.5999999999999 422.7059130415569 L 760.8 422.7743106843423 L 756.0 422.5520039337794 L 751.2 422.76964535694174 L 746.4 422.12425440413205 L 741.5999999999999 422.46117065989125 L 736.8 422.7070630515564 L 732.0 422.87479650433505 L 727.1999999999999 423.2224084408728 L 722.4 422.85019364079034 L 717.6 422.6092645786931 L 712.8000000000001 422.27467207751283 L 708.0 422.3445165045283 L 703.2 422.80358940123176 L 698.4000000000001 423.20781317202614 L 693.6 423.64516212513877 L 688.8 423.2315711610138 L 684.0 423.282184109342 L 679.2 423.92864671185094 L 674.4000000000001 424.13936289790865 L 669.5999999999999 424.1368671274731 L 664.8 424.459756425935 L 660.0 425.0282925638187 L 655.2 424.4710037844924 L 650.4000000000001 424.4095879513799 L 645.5999999999999 424.22635469471703 L 640.8 424.2254903456868 L 636.0 423.9197464691945 L 631.2 424.32565339876436 L 626.4 424.03113066045785 L 621.5999999999999 423.87404962177465 L 616.8 424.1117992655954 L 612.0 424.1416081283618 L 607.1999999999999 424.3041127841483 L 602.4 423.60782087948166 L 597.6 423.3546729773752 L 592.8000000000001 423.3148617490252 L 588.0 422.9313617650063 L 583.2 423.35748315225106 L 578.4000000000001 423.49622645170604 L 573.6 424.1781065543074 L 568.8 424.21329930221043 L 564.0 424.639844437506 L 559.2 424.76622371953937 L 554.4000000000001 424.6004269403372 L 549.5999999999999 424.48781917991175 L 544.8 423.9048267947686 L 540.0 424.263743138871 L 535.2 424.37769928789305 L 530.4000000000001 424.58803492339786 L 525.5999999999999 424.7786746456347 L 520.8 424.76086967503306 L 516.0 424.7196607944573 L 511.2 424.0863593105126 L 506.40000000000003 423.9857684147359 L 501.6 424.37947602071057 L 496.8 424.8450547490817 L 492.0 425.02370375450477 L 487.20000000000005 424.6920625497586 L 482.4 424.7419949012809 L 477.6 424.71082536913383 L 472.79999999999995 424.7309519939081 L 468.0 424.16148577208435 L 463.2 423.7670399175088 L 458.4 423.8105402724255 L 453.59999999999997 423.4914157808354 L 448.8 423.3020713458015 L 444.0 423.1908525600304 L 439.20000000000005 423.58171719262555 L 434.4 424.04635079456244 L 429.6 423.54933951771034 L 424.79999999999995 423.5010570969996 L 420.0 423.15388873762817 L 415.20000000000005 423.13314785994197 L 410.4 423.2853350704736 L 405.6 423.4529940426001 L 400.79999999999995 422.9681335082807 L 396.0 423.25859602006676 L 391.2 422.8736678286602 L 386.40000000000003 422.76342579063964 L 381.6 422.69585478811575 L 376.8 422.98654948676324 L 372.0 422.4537491725713 L 367.20000000000005 422.7401706145993 L 362.4 422.70948742767786 L 357.6 422.58724659834076 L 352.79999999999995 422.5240686074326 L 348.0 422.3850495603249 L 343.2 422.6776183643611 L 338.4 422.6186415718006 L 333.59999999999997 422.94426765392626 L 328.8 422.98801246662947 L 324.0 422.5566993220876 L 319.20000000000005 422.6533757397546 L 314.4 423.04230329366266 L 309.6 423.14313070590316 L 304.79999999999995 422.7567799802917 L 300.0 423.0816251043101 L 295.20000000000005 422.5747748590291 L 290.4 422.76707056137457 L 285.59999999999997 423.1324220825073 L 280.8 423.5880719000695 L 276.0 423.82808520248074 L 271.2 423.9129386194645 L 266.4 423.59973707460296 L 261.59999999999997 424.06165487173547 L 256.79999999999995 424.2698261763683 L 252.0 423.88077296381806 L 247.2 424.14569892060416 L 242.39999999999998 424.4509469599706 L 237.60000000000002 424.23005001043674 L 232.8 423.59538646096416 L 228.0 424.3196234363469 L 223.20000000000002 424.56388448430806 L 218.4 424.34781628565946 L 213.60000000000002 424.2114068403261 L 208.8 424.4964342283884 L 204.0 424.74559906114877 L 199.2 425.1798775791071 L 194.4 424.6259371165497 L 189.60000000000002 424.22314923240606 L 184.8 424.37914087859616 L 180.0 424.11147881120706 L 175.2 423.991621589667 L 170.4 424.0651109324422 L 165.6 425.1770659220962 L 160.8 425.24377479404217 L 156.0 425.8239565600358 L 151.2 425.97830911772735 L 146.4 425.9939876144618 L 141.60000000000002 426.5909178643067 L 136.8 426.6912117224785 L 132.0 426.85865700581445 L 127.20000000000002 427.75375238653055 L 122.4 427.3487842721578 L 117.6 428.52485156857347 L 112.8 428.73493748711616 L 108.0 429.5447726071269 L 103.2 430.26529256460003 L 98.4 430.6488749410738 L 93.6 431.45146750478494 L 88.8 432.2686103064243 L 84.0 433.20468304876687 L 79.19999999999999 434.2754658909554 L 74.39999999999999 435.49167207603233 L 69.6 436.95608213487964 L 64.8 438.41982325057745" style="stroke:rgb(83.5%,24.3%,31%);stroke-opacity:1.0;stroke-width:2.0" /></g></g><g class="toyplot-mark-Text" id="ta608ebda7ee8491fbdad144f9e869a68"><g class="toyplot-Series"><g class="toyplot-Datum" transform="translate(444.0,425.02370375450477)"><text x="5.0" y="3.577" style="fill:rgb(83.5%,24.3%,31%);fill-opacity:1.0;font-family:helvetica;font-size:14.0px;font-weight:normal;opacity:1;stroke:none;vertical-align:baseline;white-space:pre">High Sex, Purifying</text></g></g></g><g class="toyplot-mark-Plot" style="fill:none" id="tfba06de203694721a464075c68bc7f02"><g class="toyplot-Series"><path d="M 1020.0 416.47119177923685 L 1015.1999999999999 417.05954088519064 L 1010.4000000000001 416.824068107126 L 1005.5999999999999 416.74634123318054 L 1000.8000000000001 418.03055710738784 L 996.0 418.20695178522914 L 991.1999999999999 418.4362105167562 L 986.4000000000001 418.3709402074015 L 981.5999999999999 417.91389731409924 L 976.7999999999998 417.46444070143787 L 972.0 416.89063225510614 L 967.1999999999999 416.5857902032764 L 962.4 416.5686464883189 L 957.6 416.5694058639126 L 952.8000000000001 416.76648279800196 L 948.0 416.65339434283743 L 943.2 416.4637887188499 L 938.4000000000001 416.29960303464935 L 933.6 416.8757684330567 L 928.8 416.8662769221723 L 924.0 417.05633377746886 L 919.2 416.1817607875424 L 914.4000000000001 417.2679118112874 L 909.5999999999999 417.8219364080227 L 904.8 418.2756488986868 L 900.0 419.0214984139389 L 895.2 418.64448471916154 L 890.4000000000001 418.70674052673183 L 885.5999999999999 418.2427414018273 L 880.8 418.88852808600336 L 876.0 419.0657686469338 L 871.2 419.1162786036557 L 866.4 419.20951402079254 L 861.5999999999999 418.93521395508077 L 856.8 419.56229586010716 L 852.0 419.4444433675774 L 847.1999999999999 420.05902776072344 L 842.4 419.55237653341084 L 837.6 419.2972615061207 L 832.8000000000001 418.87860012314167 L 828.0 418.53061478323906 L 823.2 419.0082106269173 L 818.4000000000001 420.0420897020129 L 813.6 420.50866747706107 L 808.8 420.0865211898108 L 804.0 420.4757529613666 L 799.2 420.5387120883801 L 794.4000000000001 420.6649532027678 L 789.5999999999999 420.62001817999294 L 784.8 420.6528047682816 L 780.0 420.5233969461178 L 775.2 420.6693485885812 L 770.4000000000001 421.1354697673202 L 765.5999999999999 420.9838843443002 L 760.8 421.3191483660052 L 756.0 421.2052426862406 L 751.2 421.03692661799187 L 746.4 420.2505129369745 L 741.5999999999999 420.0064843194749 L 736.8 420.05848102968383 L 732.0 419.8972129512431 L 727.1999999999999 419.6454739812679 L 722.4 419.2091915722762 L 717.6 418.4745144404539 L 712.8000000000001 418.6211991973087 L 708.0 419.12016935135074 L 703.2 419.034863428515 L 698.4000000000001 419.0459318566244 L 693.6 419.58620959566656 L 688.8 419.6352227961803 L 684.0 419.95221754642586 L 679.2 420.69940701787436 L 674.4000000000001 420.79946829070246 L 669.5999999999999 420.5337369745135 L 664.8 420.37235096493725 L 660.0 420.7400689890384 L 655.2 420.144954524108 L 650.4000000000001 420.9631461710537 L 645.5999999999999 420.97095718310976 L 640.8 421.0917211334672 L 636.0 421.745180322026 L 631.2 421.0289262711081 L 626.4 420.9104948982372 L 621.5999999999999 421.42168656896337 L 616.8 420.76059485300334 L 612.0 420.90361456116483 L 607.1999999999999 421.4407686280956 L 602.4 421.42584084374215 L 597.6 421.4957148100676 L 592.8000000000001 421.46276696452384 L 588.0 421.2431336012894 L 583.2 421.25734641766365 L 578.4000000000001 420.9300694580453 L 573.6 421.2904410763039 L 568.8 421.82510574355234 L 564.0 421.4595098647537 L 559.2 421.3184752737176 L 554.4000000000001 421.6253482716924 L 549.5999999999999 421.5944190376573 L 544.8 421.1025261955622 L 540.0 420.99703762165115 L 535.2 420.33584596551566 L 530.4000000000001 421.13472656645166 L 525.5999999999999 420.8958481272048 L 520.8 420.95601985349293 L 516.0 420.13078108068015 L 511.2 420.6651221330795 L 506.40000000000003 421.3544144793637 L 501.6 421.93918465436445 L 496.8 421.8989498933257 L 492.0 422.18288753105486 L 487.20000000000005 422.1836871177333 L 482.4 422.7847984758305 L 477.6 422.7047784189975 L 472.79999999999995 422.7776400584323 L 468.0 422.55558151945746 L 463.2 421.56178757500476 L 458.4 421.52093403938744 L 453.59999999999997 421.2892106815355 L 448.8 420.6775896652719 L 444.0 421.03132310513877 L 439.20000000000005 420.8981015364971 L 434.4 421.27539417057966 L 429.6 422.38772113949375 L 424.79999999999995 422.40408852019374 L 420.0 422.19008256322496 L 415.20000000000005 421.8943275881707 L 410.4 421.15527901678297 L 405.6 421.5605059362961 L 400.79999999999995 421.07055730712597 L 396.0 420.89561122853064 L 391.2 421.38157437832587 L 386.40000000000003 421.4043066240288 L 381.6 421.3163454542808 L 376.8 421.8104511588845 L 372.0 421.8207497803949 L 367.20000000000005 421.4139393605125 L 362.4 422.00925756805503 L 357.6 422.6254024091881 L 352.79999999999995 423.1102641869603 L 348.0 423.48861836294003 L 343.2 423.4848516851276 L 338.4 423.80912041641204 L 333.59999999999997 423.8622366305994 L 328.8 424.3400448492895 L 324.0 424.01604615187955 L 319.20000000000005 423.7289376135408 L 314.4 424.1600801101952 L 309.6 424.2776014457512 L 304.79999999999995 423.90639844676144 L 300.0 423.451116080888 L 295.20000000000005 423.70184655622626 L 290.4 424.0576089740519 L 285.59999999999997 423.64267489193196 L 280.8 423.7650881881963 L 276.0 423.127211802802 L 271.2 423.39206609090104 L 266.4 423.3455355300506 L 261.59999999999997 423.1070880000654 L 256.79999999999995 423.5125831311399 L 252.0 423.32046380652014 L 247.2 423.06745703219536 L 242.39999999999998 423.44130828698076 L 237.60000000000002 423.84428495065254 L 232.8 424.2443478502674 L 228.0 424.69079416556633 L 223.20000000000002 424.58402178758115 L 218.4 425.0438499469719 L 213.60000000000002 424.91363699020434 L 208.8 425.0109475089554 L 204.0 425.3314939878709 L 199.2 424.4886588927854 L 194.4 424.4438358908607 L 189.60000000000002 425.11160423091417 L 184.8 424.7345254248745 L 180.0 424.51232805978776 L 175.2 425.35955628138504 L 170.4 425.68730747747077 L 165.6 425.81490081145745 L 160.8 425.77373488108816 L 156.0 425.5208108396996 L 151.2 425.91879181588126 L 146.4 425.84332454620943 L 141.60000000000002 426.2710206634849 L 136.8 426.6984283641187 L 132.0 426.89545227075814 L 127.20000000000002 427.4506108813842 L 122.4 427.8639095600902 L 117.6 428.32683893878254 L 112.8 429.455492752908 L 108.0 429.2606971439088 L 103.2 429.49582614838715 L 98.4 430.9106563823364 L 93.6 431.60691954427887 L 88.8 432.33113845352744 L 84.0 433.27012215474514 L 79.19999999999999 434.6391377624936 L 74.39999999999999 435.99796494017073 L 69.6 436.9571766142098 L 64.8 438.5028398513103" style="stroke:rgb(62%,0.4%,25.9%);stroke-opacity:1.0;stroke-width:2.0" /></g></g><g class="toyplot-mark-Text" id="t81bb52812dca417eb7f4d6f08e37081a"><g class="toyplot-Series"><g class="toyplot-Datum" transform="translate(444.0,422.18288753105486)"><text x="5.0" y="3.577" style="fill:rgb(62%,0.4%,25.9%);fill-opacity:1.0;font-family:helvetica;font-size:14.0px;font-weight:normal;opacity:1;stroke:none;vertical-align:baseline;white-space:pre">High Sex, Positive</text></g></g></g></g><g class="toyplot-coordinates-Axis" id="tae293a41db17400683bcd558762b0cfa" transform="translate(60.0,440.0)translate(0,10.0)"><line x1="0" y1="0" x2="480.0" y2="0" style="" /><g><line x1="0.0" y1="5.0" x2="0.0" y2="0" style="" /><line x1="96.0" y1="5.0" x2="96.0" y2="0" style="" /><line x1="192.0" y1="5.0" x2="192.0" y2="0" style="" /><line x1="288.0" y1="5.0" x2="288.0" y2="0" style="" /><line x1="384.0" y1="5.0" x2="384.0" y2="0" style="" /><line x1="480.0" y1="5.0" x2="480.0" y2="0" style="" /></g><g><g transform="translate(0.0,10.0)"><text x="-3.6140000000000003" y="11.1215" style="fill:rgb(16.1%,15.3%,14.1%);fill-opacity:1.0;font-family:helvetica;font-size:13.0px;font-weight:normal;stroke:none;vertical-align:baseline;white-space:pre">0</text></g><g transform="translate(96.0,10.0)"><text x="-14.456000000000001" y="11.1215" style="fill:rgb(16.1%,15.3%,14.1%);fill-opacity:1.0;font-family:helvetica;font-size:13.0px;font-weight:normal;stroke:none;vertical-align:baseline;white-space:pre">4000</text></g><g transform="translate(192.0,10.0)"><text x="-14.456000000000001" y="11.1215" style="fill:rgb(16.1%,15.3%,14.1%);fill-opacity:1.0;font-family:helvetica;font-size:13.0px;font-weight:normal;stroke:none;vertical-align:baseline;white-space:pre">8000</text></g><g transform="translate(288.0,10.0)"><text x="-18.070000000000004" y="11.1215" style="fill:rgb(16.1%,15.3%,14.1%);fill-opacity:1.0;font-family:helvetica;font-size:13.0px;font-weight:normal;stroke:none;vertical-align:baseline;white-space:pre">12000</text></g><g transform="translate(384.0,10.0)"><text x="-18.070000000000004" y="11.1215" style="fill:rgb(16.1%,15.3%,14.1%);fill-opacity:1.0;font-family:helvetica;font-size:13.0px;font-weight:normal;stroke:none;vertical-align:baseline;white-space:pre">16000</text></g><g transform="translate(480.0,10.0)"><text x="-18.070000000000004" y="11.1215" style="fill:rgb(16.1%,15.3%,14.1%);fill-opacity:1.0;font-family:helvetica;font-size:13.0px;font-weight:normal;stroke:none;vertical-align:baseline;white-space:pre">20000</text></g></g><g transform="translate(240.0,30.0)"><text x="-71.568" y="13.687999999999999" style="fill:rgb(16.1%,15.3%,14.1%);fill-opacity:1.0;font-family:helvetica;font-size:16.0px;font-weight:bold;stroke:none;vertical-align:baseline;white-space:pre">Time (generations)</text></g><g class="toyplot-coordinates-Axis-coordinates" style="visibility:hidden" transform=""><line x1="0" x2="0" y1="-5.0" y2="7.5" style="stroke:rgb(43.9%,50.2%,56.5%);stroke-opacity:1.0;stroke-width:1.0" /><text x="0" y="-10.0" style="alignment-baseline:alphabetic;fill:rgb(43.9%,50.2%,56.5%);fill-opacity:1.0;font-size:10px;font-weight:normal;stroke:none;text-anchor:middle" /></g></g><g class="toyplot-coordinates-Axis" id="t12128fb412d64c21a1c4c8d977290aae" transform="translate(60.0,440.0)rotate(-90.0)translate(0,-10.0)"><line x1="0" y1="0" x2="380.0" y2="0" style="" /><g><line x1="0.0" y1="-5.0" x2="0.0" y2="0" style="" /><line x1="126.66666666666666" y1="-5.0" x2="126.66666666666666" y2="0" style="" /><line x1="253.33333333333331" y1="-5.0" x2="253.33333333333331" y2="0" style="" /><line x1="380.0" y1="-5.0" x2="380.0" y2="0" style="" /></g><g><g transform="translate(0.0,-10.0)"><text x="-3.6140000000000003" y="0.0" style="fill:rgb(16.1%,15.3%,14.1%);fill-opacity:1.0;font-family:helvetica;font-size:13.0px;font-weight:normal;stroke:none;vertical-align:baseline;white-space:pre">0</text></g><g transform="translate(126.66666666666666,-10.0)"><text x="-7.228000000000001" y="0.0" style="fill:rgb(16.1%,15.3%,14.1%);fill-opacity:1.0;font-family:helvetica;font-size:13.0px;font-weight:normal;stroke:none;vertical-align:baseline;white-space:pre">50</text></g><g transform="translate(253.33333333333331,-10.0)"><text x="-10.841999999999999" y="0.0" style="fill:rgb(16.1%,15.3%,14.1%);fill-opacity:1.0;font-family:helvetica;font-size:13.0px;font-weight:normal;stroke:none;vertical-align:baseline;white-space:pre">100</text></g><g transform="translate(380.0,-10.0)"><text x="-10.841999999999999" y="0.0" style="fill:rgb(16.1%,15.3%,14.1%);fill-opacity:1.0;font-family:helvetica;font-size:13.0px;font-weight:normal;stroke:none;vertical-align:baseline;white-space:pre">150</text></g></g><g transform="translate(190.0,-30.0)"><text x="-98.04239999999999" y="0.0" style="fill:rgb(16.1%,15.3%,14.1%);fill-opacity:1.0;font-family:helvetica;font-size:16.0px;font-weight:bold;stroke:none;vertical-align:baseline;white-space:pre">Heterozygosity (&#215;10</text><text x="53.55760000000001" y="-3.36" style="fill:rgb(16.1%,15.3%,14.1%);fill-opacity:1.0;font-family:helvetica;font-size:11.2px;font-weight:bold;stroke:none;vertical-align:baseline;white-space:pre">-6</text><text x="63.51440000000001" y="0.0" style="fill:rgb(16.1%,15.3%,14.1%);fill-opacity:1.0;font-family:helvetica;font-size:16.0px;font-weight:bold;stroke:none;vertical-align:baseline;white-space:pre">, (&#963;))</text></g><g class="toyplot-coordinates-Axis-coordinates" style="visibility:hidden" transform=""><line x1="0" x2="0" y1="5.0" y2="-7.5" style="stroke:rgb(43.9%,50.2%,56.5%);stroke-opacity:1.0;stroke-width:1.0" /><text x="0" y="10.0" style="alignment-baseline:hanging;fill:rgb(43.9%,50.2%,56.5%);fill-opacity:1.0;font-size:10px;font-weight:normal;stroke:none;text-anchor:middle" /></g></g><g transform="translate(300.0,40.0)"><text x="-112.97399999999999" y="-6.545499999999997" style="fill:rgb(16.1%,15.3%,14.1%);fill-opacity:1.0;font-family:helvetica;font-size:19.0px;font-weight:bold;stroke:none;vertical-align:baseline;white-space:pre">Expected Heterozygosity</text></g></g></svg>