<svg class="toyplot-canvas-Canvas" xmlns:toyplot="http://www.sandia.gov/toyplot" xmlns:xlink="http://www.w3.org/1999/xlink" xmlns="http://www.w3.org/2000/svg" width="600.0px" height="500.0px" viewBox="0 0 600.0 500.0" preserveAspectRatio="xMidYMid meet" style="background-color:transparent;border-color:#292724;border-style:none;border-width:1.0;fill:rgb(16.1%,15.3%,14.1%);fill-opacity:1.0;font-family:Helvetica;font-size:12px;opacity:1.0;stroke:rgb(16.1%,15.3%,14.1%);stroke-opacity:1.0;stroke-width:1.0" id="t81cf866f223b4d77a833ac4caf5b4814"><g class="toyplot-coordinates-Cartesian" id="t01749ad11c2a44bba1644a4809c6e716"><clipPath id="tde0f11f624f04a07b8383f5cf99698cd"><rect x="50.0" y="50.0" width="500.0" height="400.0" /></clipPath><g clip-path="url(#tde0f11f624f04a07b8383f5cf99698cd)"><g class="toyplot-mark-FillBoundaries" style="stroke:none" id="tc1a970bf0a3e4841a79473294ada99cb"><polygon points="1020.0,-96.91381213334763 1015.1999999999999,-94.02146071199083 1010.4000000000001,-91.0081953989989 1005.5999999999999,-88.55235493174962 1000.8000000000001,-85.25796067554795 996.0,-82.83653187539338 991.1999999999999,-79.90964344610593 986.4000000000001,-77.7209083252325 981.5999999999999,-75.58744051670624 976.7999999999998,-73.42288457862863 972.0,-71.49361256696625 967.1999999999999,-68.976966827546 962.4,-66.95979895997817 957.6,-64.45562585515873 952.8000000000001,-62.36811559095159 948.0,-59.25580536179805 943.2,-56.6079689208391 938.4000000000001,-54.655737864172266 933.6,-52.72960356426883 928.8,-50.69107821532258 924.0,-48.271675070354206 919.2,-45.93423751836501 914.4000000000001,-43.42465791320792 909.5999999999999,-40.450933541785716 904.8,-37.65914883903504 900.0,-34.49758462597478 895.2,-31.78234388227513 890.4000000000001,-28.811465223209908 885.5999999999999,-25.92547093655554 880.8,-23.121431918402124 876.0,-20.777547667837993 871.2,-17.91068817627405 866.4,-15.109960411448824 861.5999999999999,-13.131039603278268 856.8,-10.73110209025036 852.0,-7.846399935348316 847.1999999999999,-5.079695853170989 842.4,-2.222737871291997 837.6,0.6689524498912931 832.8000000000001,2.3376446670395836 828.0,4.807299168352429 823.2,7.017201885275632 818.4000000000001,9.380081490491378 813.6,12.327477910211634 808.8,14.720339405636373 804.0,17.11719299577245 799.2,20.52170197143289 794.4000000000001,22.81897452381216 789.5999999999999,25.079387057097435 784.8,27.323773798522197 780.0,29.8437469070916 775.2,32.14317424804971 770.4000000000001,34.79871740618648 765.5999999999999,37.51976642987553 760.8,40.7631679822398 756.0,44.0042137487022 751.2,46.293695992030486 746.4,48.403248697578476 741.5999999999999,50.70140995269148 736.8,52.996631534194286 732.0,55.63886029500967 727.1999999999999,58.32162953700802 722.4,61.07434838652769 717.6,63.676182129545815 712.8000000000001,66.5706653680054 708.0,69.45495177892353 703.2,71.2973038021288 698.4000000000001,73.71562504099894 693.6,76.02494006947278 688.8,78.5301592952298 684.0,81.63214181165043 679.2,84.42003602451501 674.4000000000001,86.65850967937442 669.5999999999999,89.092237746579 664.8,91.54318954231077 660.0,94.23068551636774 655.2,96.81278094572815 650.4000000000001,99.08024355757541 645.5999999999999,101.77779270791166 640.8,104.34015604874789 636.0,106.99497228953373 631.2,110.0883084683631 626.4,112.73973911436073 621.5999999999999,115.20510262208873 616.8,118.21698361025162 612.0,120.82482111578054 607.1999999999999,123.55305361367485 602.4,126.45344822216396 597.6,129.00994255256384 592.8000000000001,131.21301891727714 588.0,133.0173405088795 583.2,135.8221857736408 578.4000000000001,138.54114729735068 573.6,140.80457483805932 568.8,142.86903270128508 564.0,145.07739193735438 559.2,147.3887724786536 554.4000000000001,149.52492513223297 549.5999999999999,152.03452438528294 544.8,153.88176786652343 540.0,156.48813581228256 535.2,159.3563820081972 530.4000000000001,162.49416922750876 525.5999999999999,165.40711299927818 520.8,167.98887613118598 516.0,170.03799664053182 511.2,173.10028225727854 506.40000000000003,175.38146818787928 501.6,177.2851789904293 496.8,179.89289859699022 492.0,182.54762438853683 487.20000000000005,185.54275870777326 482.4,187.8356447292592 477.6,190.98492032762167 472.79999999999995,193.525950032026 468.0,196.07111714519377 463.2,198.50512024197286 458.4,200.29053933482373 453.59999999999997,202.6534054427588 448.8,204.72115417078325 444.0,206.91001763926857 439.20000000000005,209.21900574229045 434.4,211.852546318207 429.6,214.25923316164327 424.79999999999995,216.6178175964671 420.0,220.3492946885945 415.20000000000005,222.30910076248404 410.4,224.4169760402031 405.6,226.67466787970028 400.79999999999995,229.45325052220753 396.0,231.48596121404398 391.2,233.51072205907997 386.40000000000003,235.96355311864127 381.6,239.43733668840775 376.8,242.08386119003526 372.0,244.9877658299287 367.20000000000005,247.37268216075057 362.4,250.21450510919337 357.6,253.15392624877865 352.79999999999995,256.22516819836187 348.0,259.1170433093197 343.2,261.5238644024358 338.4,263.9494600079173 333.59999999999997,266.7211851294142 328.8,269.2364584130807 324.0,272.26435462418226 319.20000000000005,275.056759954933 314.4,277.2168907942315 309.6,279.0434263320023 304.79999999999995,281.7692854323339 300.0,283.9255360533434 295.20000000000005,286.9237328990029 290.4,289.9410140061555 285.59999999999997,291.9126477987312 280.8,294.42379861165136 276.0,296.92908843013043 271.2,299.14407200435585 266.4,301.7539141281136 261.59999999999997,304.38537128028366 256.79999999999995,306.8168192648467 252.0,309.23289528450573 247.2,312.0623721662021 242.39999999999998,314.6687053972784 237.60000000000002,316.9702547153694 232.8,319.61538422265824 228.0,322.4560676001859 223.20000000000002,324.64705947956213 218.4,327.7157674637185 213.60000000000002,330.31046126021675 208.8,332.78172017821356 204.0,336.3980366520313 199.2,339.42826236274794 194.4,342.16679168846156 189.60000000000002,344.4078087342091 184.8,347.404119542967 180.0,350.244853027052 175.2,352.83145455933135 170.4,356.30124106556707 165.6,359.7323287610897 160.8,362.52153453212065 156.0,365.06263139837966 151.2,367.76196440468465 146.4,370.7985874981105 141.60000000000002,373.97348524090097 136.8,376.82593372278916 132.0,380.10415713427403 127.20000000000002,383.38235266283584 122.4,386.9561965049928 117.6,390.7005264426607 112.8,394.4075628063144 108.0,398.04016144711494 103.2,401.60885625225757 98.4,405.2251227018495 93.6,408.7278324529037 88.8,412.629509320361 84.0,416.532720464964 79.19999999999999,420.6053944631492 74.39999999999999,425.2592479306528 69.6,430.12926326341665 64.8,434.97176221756155 64.8,439.91422467213806 69.6,439.8418761095046 74.39999999999999,439.7674457318456 79.19999999999999,439.71281407764997 84.0,439.65331535195094 88.8,439.6315325407703 93.6,439.5752627721246 98.4,439.52884188479237 103.2,439.47349479674256 108.0,439.41712513520406 112.8,439.4071125949871 117.6,439.36872047993455 122.4,439.3343975300661 127.20000000000002,439.30352174228733 132.0,439.2611578948628 136.8,439.22872780093974 141.60000000000002,439.21116939632725 146.4,439.18450150107935 151.2,439.12491658844806 156.0,439.1028131735199 160.8,439.06316113582346 165.6,439.03672321477603 170.4,439.02075961592885 175.2,438.99302438028025 180.0,438.97464178929647 184.8,438.9691496585055 189.60000000000002,438.94880653967573 194.4,438.9404892402257 199.2,438.92186598290846 204.0,438.88224357493397 208.8,438.8505045198172 213.60000000000002,438.85056897349597 218.4,438.83535536478826 223.20000000000002,438.7980247142042 228.0,438.7628093214113 232.8,438.7326211788649 237.60000000000002,438.7146654717573 242.39999999999998,438.6918610418852 247.2,438.68633209391305 252.0,438.65241615603867 256.79999999999995,438.62499132457765 261.59999999999997,438.61253331373 266.4,438.5704672024372 271.2,438.55432940029965 276.0,438.55022552854905 280.8,438.5480319054739 285.59999999999997,438.51930765690184 290.4,438.51204338028447 295.20000000000005,438.49346512591774 300.0,438.49828527117666 304.79999999999995,438.50070451117216 309.6,438.5125253652439 314.4,438.494677897679 319.20000000000005,438.503500453571 324.0,438.47140508718036 328.8,438.46301520424873 333.59999999999997,438.46474276407304 338.4,438.458233661028 343.2,438.4463022414857 348.0,438.40464983115163 352.79999999999995,438.3571152766148 357.6,438.3380463191099 362.4,438.3158492824835 367.20000000000005,438.3027779957854 372.0,438.30531692075016 376.8,438.32774384967223 381.6,438.32102290377776 386.40000000000003,438.29112302321346 391.2,438.2655481349411 396.0,438.2365964648382 400.79999999999995,438.2174324333958 405.6,438.21577355313 410.4,438.22629438874 415.20000000000005,438.2041047348931 420.0,438.2026521677333 424.79999999999995,438.1818497679712 429.6,438.1752781409894 434.4,438.16904855474326 439.20000000000005,438.1720877832279 444.0,438.16953279101523 448.8,438.1569698853473 453.59999999999997,438.1608404721801 458.4,438.1541606235006 463.2,438.1583959397608 468.0,438.14363127079207 472.79999999999995,438.1253759952165 477.6,438.130123510169 482.4,438.1359650842968 487.20000000000005,438.1239706870799 492.0,438.10189731950953 496.8,438.0917558503667 501.6,438.08037228645986 506.40000000000003,438.05631156172785 511.2,438.0369712392636 516.0,438.01248454140705 520.8,438.0295714093358 525.5999999999999,438.0536937966943 530.4000000000001,438.0274605629684 535.2,438.0088960319284 540.0,438.00556796782934 544.8,437.9752105616284 549.5999999999999,437.98499308033155 554.4000000000001,437.9617661920954 559.2,437.9560542016937 564.0,437.92071309493156 568.8,437.8909126530411 573.6,437.8748035595838 578.4000000000001,437.8692658983941 583.2,437.8355061814689 588.0,437.82490058677 592.8000000000001,437.81157589290376 597.6,437.7704511701139 602.4,437.7610436187606 607.1999999999999,437.7710452138116 612.0,437.7698748033634 616.8,437.7489546093697 621.5999999999999,437.73279809268007 626.4,437.747358136716 631.2,437.74859037624844 636.0,437.736831479864 640.8,437.7424980100671 645.5999999999999,437.72997247632503 650.4000000000001,437.7385528801605 655.2,437.7621721146751 660.0,437.7698892493388 664.8,437.7508398389377 669.5999999999999,437.7179384196547 674.4000000000001,437.6806536582631 679.2,437.65816637010926 684.0,437.6614933499065 688.8,437.6621902533798 693.6,437.6380531516396 698.4000000000001,437.6365326603899 703.2,437.6313167905467 708.0,437.6150996642212 712.8000000000001,437.57448166277516 717.6,437.58707905843454 722.4,437.5596350042974 727.1999999999999,437.54788430862783 732.0,437.5256487887303 736.8,437.5333171960508 741.5999999999999,437.52948123108865 746.4,437.542411121144 751.2,437.4982126648246 756.0,437.47722685786886 760.8,437.48611140190445 765.5999999999999,437.48927385441397 770.4000000000001,437.48723891796527 775.2,437.48570976345866 780.0,437.45216075764966 784.8,437.47912674957473 789.5999999999999,437.4535583234772 794.4000000000001,437.4239468443219 799.2,437.4393101354441 804.0,437.4002280539091 808.8,437.3874169416012 813.6,437.3817746373441 818.4000000000001,437.37695030979256 823.2,437.3666487466445 828.0,437.36075821361845 832.8000000000001,437.3330416130116 837.6,437.35706370124075 842.4,437.34919579845666 847.1999999999999,437.37024126857557 852.0,437.3693055419139 856.8,437.3505010059624 861.5999999999999,437.3236020411368 866.4,437.3247556083818 871.2,437.33267257370136 876.0,437.3337419183595 880.8,437.33320870695593 885.5999999999999,437.3118550822407 890.4000000000001,437.33580531315914 895.2,437.28294878438663 900.0,437.27324758256003 904.8,437.2584588889099 909.5999999999999,437.26928619846063 914.4000000000001,437.2263851546724 919.2,437.20471202123355 924.0,437.2096556269992 928.8,437.1591131568876 933.6,437.1681610512171 938.4000000000001,437.1742807999149 943.2,437.1788275225579 948.0,437.15017812837107 952.8000000000001,437.158421114419 957.6,437.14420306395266 962.4,437.15032694600205 967.1999999999999,437.1421770756262 972.0,437.1118152425821 976.7999999999998,437.14937071102247 981.5999999999999,437.14785208981726 986.4000000000001,437.14604246390434 991.1999999999999,437.1581609915028 996.0,437.15960381234527 1000.8000000000001,437.1370607565605 1005.5999999999999,437.1293597792947 1010.4000000000001,437.14200551366804 1015.1999999999999,437.1354539524584 1020.0,437.13259894301876" style="fill:rgb(99.2%,68.2%,38%);fill-opacity:1.0;opacity:0.2;stroke:none" /></g><g class="toyplot-mark-Plot" style="fill:none" id="t7c5edde6b8d34b6fa53d22d1d598c138"><g class="toyplot-Series"><path d="M 1020.0 172.9767944618168 L 1015.1999999999999 174.42154266777538 L 1010.4000000000001 175.92489954366658 L 1005.5999999999999 177.15914264447792 L 1000.8000000000001 178.80248928394573 L 996.0 180.0019321561307 L 991.1999999999999 181.46609778119563 L 986.4000000000001 182.56652460543154 L 981.5999999999999 183.63235369673822 L 976.7999999999998 184.71387235517443 L 972.0 185.69728609522582 L 967.1999999999999 186.9404280484139 L 962.4 187.94493704700994 L 957.6 189.20008554044426 L 952.8000000000001 190.2367316473147 L 948.0 191.79700825491545 L 943.2 193.10660177830152 L 938.4000000000001 194.0849906679564 L 933.6 195.05111769225695 L 928.8 196.07490431389493 L 924.0 197.2593346513233 L 919.2 198.43052523020071 L 914.4000000000001 199.6744784660598 L 909.5999999999999 201.13989012987673 L 904.8 202.5411961360275 L 900.0 204.11458389573266 L 895.2 205.4673536666691 L 890.4000000000001 206.9263647318155 L 885.5999999999999 208.38133699060182 L 880.8 209.77267968732093 L 876.0 210.9443552069012 L 871.2 212.37831962501232 L 866.4 213.7826419900847 L 861.5999999999999 214.7726791777925 L 856.8 215.9591984518936 L 852.0 217.3921472613689 L 847.1999999999999 218.77503143912674 L 842.4 220.2140331651257 L 837.6 221.65594437432526 L 832.8000000000001 222.50230152701403 L 828.0 223.723270477367 L 823.2 224.82527656931558 L 818.4000000000001 226.00156559034943 L 813.6 227.47285163643377 L 808.8 228.66646123201758 L 804.0 229.85848247093165 L 799.2 231.54119591799443 L 794.4000000000001 232.6975138397451 L 789.5999999999999 233.81291436681016 L 784.8 234.9223235244737 L 780.0 236.19579307472097 L 775.2 237.3287322422955 L 770.4000000000001 238.65573924411058 L 765.5999999999999 240.01524628773083 L 760.8 241.6385282901677 L 756.0 243.26349344541669 L 751.2 244.39774166360291 L 746.4 245.4304187882172 L 741.5999999999999 246.58596436080143 L 736.8 247.7316571690717 L 732.0 249.05660575313973 L 727.1999999999999 250.3868726141901 L 722.4 251.75735669111512 L 717.6 253.04455153555563 L 712.8000000000001 254.49809185261512 L 708.0 255.91992605735118 L 703.2 256.8329935057911 L 698.4000000000001 258.0395461903045 L 693.6 259.1934434589166 L 688.8 260.433984520925 L 684.0 261.9853242308719 L 679.2 263.38093482720285 L 674.4000000000001 264.4889280105557 L 669.5999999999999 265.6871496634622 L 664.8 266.8961748516865 L 660.0 268.2303981335144 L 655.2 269.52530441552653 L 650.4000000000001 270.67084533870747 L 645.5999999999999 272.0239101157933 L 640.8 273.29882901934036 L 636.0 274.62907040483486 L 631.2 276.16985904605735 L 626.4 277.4961904888223 L 621.5999999999999 278.73615226470434 L 616.8 280.23401450044094 L 612.0 281.52747315620854 L 607.1999999999999 282.8910041999316 L 602.4 284.34620230170174 L 597.6 285.6197456912249 L 592.8000000000001 286.7007215121867 L 588.0 287.5962199610547 L 583.2 288.99333979608593 L 578.4000000000001 290.3359406994783 L 573.6 291.46488563923776 L 568.8 292.489060024122 L 564.0 293.57833942121135 L 559.2 294.71635913847996 L 554.4000000000001 295.78157947006883 L 549.5999999999999 297.02476565247565 L 544.8 297.9532786524476 L 540.0 299.2412839222266 L 535.2 300.67374298813445 L 530.4000000000001 302.2333543322702 L 525.5999999999999 303.6767096012919 L 520.8 304.979652360925 L 516.0 306.0127560495624 L 511.2 307.5316555090074 L 506.40000000000003 308.6625783130757 L 501.6 309.6024033519847 L 496.8 310.9005713733118 L 492.0 312.22286353451364 L 487.20000000000005 313.70939401034667 L 482.4 314.8498398224812 L 477.6 316.42739840872633 L 472.79999999999995 317.70028701840477 L 468.0 318.96374293720083 L 463.2 320.173362151106 L 458.4 321.0681893556615 L 453.59999999999997 322.2462824852893 L 448.8 323.282092142718 L 444.0 324.3702424241266 L 439.20000000000005 325.5234589795313 L 434.4 326.8417488817318 L 429.6 328.04197751032694 L 424.79999999999995 329.2179839142479 L 420.0 331.07332126043065 L 415.20000000000005 332.05249801379546 L 410.4 333.09534082573157 L 405.6 334.22944716328516 L 400.79999999999995 335.61790904440585 L 396.0 336.6246823746029 L 391.2 337.6225869620694 L 386.40000000000003 338.83621504771395 L 381.6 340.558156892315 L 376.8 341.87805867018153 L 372.0 343.3412244545892 L 367.20000000000005 344.5349520824826 L 362.4 345.9493279133549 L 357.6 347.4079399648344 L 352.79999999999995 348.93402646087355 L 348.0 350.356196739084 L 343.2 351.538781080475 L 338.4 352.74561317344467 L 333.59999999999997 354.1282211826706 L 328.8 355.3867216044159 L 324.0 356.896474768501 L 319.20000000000005 358.27662975068097 L 314.4 359.36110644827625 L 309.6 360.2654504833792 L 304.79999999999995 361.63429046058087 L 300.0 362.7136253910834 L 295.20000000000005 364.21513388654256 L 290.4 365.7144853129355 L 285.59999999999997 366.6966700709146 L 280.8 367.9378833530887 L 276.0 369.18943145079066 L 271.2 370.29487130202807 L 266.4 371.5917234628381 L 261.59999999999997 372.88641898327677 L 256.79999999999995 374.0959139701345 L 252.0 375.2902395642335 L 247.2 376.68802003614445 L 242.39999999999998 377.9884221776966 L 237.60000000000002 379.127794621806 L 232.8 380.44138152189663 L 228.0 381.8466291393873 L 223.20000000000002 382.924517382679 L 218.4 384.4402060494651 L 213.60000000000002 385.7299461433604 L 208.8 386.96560782919823 L 204.0 388.75789653854866 L 199.2 390.2531981899197 L 194.4 391.6131512241179 L 189.60000000000002 392.7295010972667 L 184.8 394.2174849422308 L 180.0 395.63510561887773 L 175.2 396.91921508952555 L 170.4 398.6402407248191 L 165.6 400.3478027731568 L 160.8 401.7291866981486 L 156.0 402.97990911242994 L 151.2 404.3185239081183 L 146.4 405.8070429985156 L 141.60000000000002 407.38115792228683 L 136.8 408.79860296092477 L 132.0 410.4214996197056 L 127.20000000000002 412.03941546027426 L 122.4 413.81089948746336 L 117.6 415.6659029813631 L 112.8 417.5002251056636 L 108.0 419.31151815595547 L 103.2 421.0676807277575 L 98.4 422.8481404085286 L 93.6 424.5762848403896 L 88.8 426.4989883897954 L 84.0 428.4397025565065 L 79.19999999999999 430.44629019274964 L 74.39999999999999 432.74590109940357 L 69.6 435.143693576956 L 64.8 437.5287687727117" style="stroke:rgb(99.2%,68.2%,38%);stroke-opacity:1.0;stroke-width:2.0" /></g></g><g class="toyplot-mark-Text" id="t04a4acfa65544a8d9c829e9521dfaab5"><g class="toyplot-Series"><g class="toyplot-Datum" transform="translate(444.0,312.22286353451364)"><text x="5.0" y="3.577" style="fill:rgb(99.2%,68.2%,38%);fill-opacity:1.0;font-family:helvetica;font-size:14.0px;font-weight:normal;opacity:1;stroke:none;vertical-align:baseline;white-space:pre">Neutral</text></g></g></g><g class="toyplot-mark-FillBoundaries" style="stroke:none" id="t3617a9337d38416f8c28d218dc6ed9f7"><polygon points="1020.0,108.91061455968033 1015.1999999999999,110.31898516836492 1010.4000000000001,112.13945183892645 1005.5999999999999,113.53966265752015 1000.8000000000001,115.14816254133166 996.0,116.76097326751395 991.1999999999999,118.32825711151169 986.4000000000001,120.07323909789602 981.5999999999999,121.77431723983912 976.7999999999998,123.59148914441612 972.0,124.53428559773747 967.1999999999999,125.90986639394761 962.4,127.5462646558807 957.6,129.6731189267415 952.8000000000001,131.15896077365227 948.0,133.14512073907133 943.2,135.4529539771318 938.4000000000001,137.44331834459038 933.6,139.25148224596663 928.8,140.18176994533053 924.0,141.3205879388471 919.2,142.93856827778023 914.4000000000001,144.45107677366292 909.5999999999999,146.27857373073115 904.8,148.08407050516024 900.0,149.3080189933641 895.2,151.20189635682596 890.4000000000001,152.9698259729596 885.5999999999999,154.54388756920423 880.8,156.15032649535672 876.0,157.98230136526988 871.2,159.47745831490644 866.4,160.92361062476414 861.5999999999999,162.62999473755673 856.8,163.74247371885616 852.0,165.1621244768231 847.1999999999999,166.54326388059548 842.4,167.77245503593633 837.6,169.09723279075376 832.8000000000001,170.7336409822468 828.0,172.02336202228764 823.2,173.93082363554709 818.4000000000001,175.80873076649755 813.6,177.5750414328836 808.8,179.51377140015833 804.0,180.7264331796007 799.2,182.4932804434598 794.4000000000001,184.26500519183637 789.5999999999999,185.88208182036527 784.8,187.639257365023 780.0,189.18555337285943 775.2,190.70088952670653 770.4000000000001,192.0981674423785 765.5999999999999,193.6357410808252 760.8,195.27401788022055 756.0,196.95759840321202 751.2,198.33807685590313 746.4,200.65018676853873 741.5999999999999,201.79450223900955 736.8,203.6281377811576 732.0,205.24393447224895 727.1999999999999,207.084966700154 722.4,208.2388706937502 717.6,209.6366330416976 712.8000000000001,211.34929538676613 708.0,212.59157741267094 703.2,214.2086863216262 698.4000000000001,215.5603025025262 693.6,216.97141154266455 688.8,218.31874745070866 684.0,219.7551516525828 679.2,221.6374078623124 674.4000000000001,223.59544571014888 669.5999999999999,225.01963610846457 664.8,226.58462749980112 660.0,228.13532326124624 655.2,229.3471815980496 650.4000000000001,230.90556018797002 645.5999999999999,232.2722116636676 640.8,234.2502618648753 636.0,236.15770678839743 631.2,237.38894266021168 626.4,239.07140485870858 621.5999999999999,240.19970349007264 616.8,241.628967906212 612.0,243.17487189439552 607.1999999999999,244.42409611167207 602.4,246.1682293045461 597.6,247.8460614277594 592.8000000000001,249.4688451948752 588.0,250.73860160359033 583.2,252.25272495333604 578.4000000000001,253.7802991909852 573.6,255.23764237442913 568.8,256.2318858542929 564.0,257.9158908983947 559.2,259.29149881560784 554.4000000000001,261.50072721504154 549.5999999999999,262.590351725994 544.8,264.2104794896183 540.0,265.9826168298426 535.2,267.12531601241346 530.4000000000001,269.07891980550124 525.5999999999999,270.8228016748174 520.8,272.7323702800042 516.0,274.1322013220614 511.2,276.0748048328784 506.40000000000003,278.2754796219943 501.6,280.147387259774 496.8,281.71293059017336 492.0,282.90110347472995 487.20000000000005,284.298013014241 482.4,286.12427816439543 477.6,287.78787719868626 472.79999999999995,289.8726424110775 468.0,291.82645833591863 463.2,293.245712495347 458.4,294.84220787947504 453.59999999999997,296.60451972409555 448.8,298.1866373092377 444.0,299.6588918175677 439.20000000000005,300.8100422896609 434.4,302.26503719692715 429.6,303.9525026291399 424.79999999999995,305.6351871991582 420.0,306.9085434779963 415.20000000000005,308.19260176857836 410.4,309.7945605701779 405.6,311.67640634359833 400.79999999999995,313.33316574427636 396.0,315.0446241405791 391.2,316.7746676770538 386.40000000000003,318.2980799675008 381.6,319.9408745329498 376.8,321.7599757375293 372.0,323.3427315514478 367.20000000000005,324.85296759475796 362.4,326.0382215550277 357.6,327.8526301296517 352.79999999999995,329.5508265794076 348.0,330.936625437698 343.2,332.3195168260676 338.4,333.6160584710874 333.59999999999997,335.16338793193427 328.8,336.9193039379952 324.0,338.2774679817947 319.20000000000005,339.52038907851676 314.4,341.15665963913807 309.6,342.56434575805844 304.79999999999995,343.9507408386687 300.0,345.2326846618666 295.20000000000005,346.95660922778546 290.4,348.7927998559235 285.59999999999997,350.0660799764182 280.8,351.46668633537234 276.0,352.8386902336436 271.2,354.7097097349072 266.4,356.85921318370686 261.59999999999997,358.18425386175227 256.79999999999995,360.0038479730971 252.0,361.87308517687205 247.2,363.1961506726794 242.39999999999998,364.57736040489357 237.60000000000002,366.22923811133256 232.8,367.4431272298414 228.0,369.0982283380089 223.20000000000002,370.59647320421544 218.4,371.78692812186387 213.60000000000002,373.7219573224545 208.8,375.0536644283018 204.0,377.0347509121262 199.2,378.76420650042274 194.4,380.69961948322765 189.60000000000002,382.4370241533433 184.8,384.07585205659814 180.0,386.1791105585742 175.2,388.00030293460094 170.4,390.19780155185396 165.6,392.140118478958 160.8,393.41294366576005 156.0,394.987966116839 151.2,396.96945394367515 146.4,398.8120637867104 141.60000000000002,400.83783024957785 136.8,402.6224239702347 132.0,404.33647263645986 127.20000000000002,406.51315868301174 122.4,408.46183911069494 117.6,410.41558516324795 112.8,413.0227988065869 108.0,415.1290229281225 103.2,417.21996643555707 98.4,419.1424894612209 93.6,421.0056306368277 88.8,423.3630048478674 84.0,425.9343171009174 79.19999999999999,428.1758683667049 74.39999999999999,431.09847656353463 69.6,433.8297227837245 64.8,436.78817747215226 64.8,439.93512526003485 69.6,439.87924557377926 74.39999999999999,439.83280462707404 79.19999999999999,439.77779403942975 84.0,439.7368617799975 88.8,439.6911942185187 93.6,439.65176887545334 98.4,439.62294230492205 103.2,439.5824698168208 108.0,439.56994332804715 112.8,439.5490839372007 117.6,439.51735390399875 122.4,439.4949160767018 127.20000000000002,439.4854612702629 132.0,439.4614474578827 136.8,439.44876197569477 141.60000000000002,439.42646648062 146.4,439.4090661230273 151.2,439.38988982481123 156.0,439.36401318885555 160.8,439.340382212129 165.6,439.32466707410697 170.4,439.3286730296805 175.2,439.31103350626813 180.0,439.26870799251844 184.8,439.2483102021741 189.60000000000002,439.2340907658814 194.4,439.22231883087574 199.2,439.19944305684123 204.0,439.18837512487016 208.8,439.17021700407855 213.60000000000002,439.13830216919337 218.4,439.11921725173045 223.20000000000002,439.10169614264436 228.0,439.100996433266 232.8,439.0842165624418 237.60000000000002,439.06663620457334 242.39999999999998,439.07210056008483 247.2,439.06253393575196 252.0,439.0629101979186 256.79999999999995,439.03885574708556 261.59999999999997,439.0230199201178 266.4,438.99391191401384 271.2,438.97267539241074 276.0,438.96720763962776 280.8,438.93897319890675 285.59999999999997,438.9253645432498 290.4,438.91390255563005 295.20000000000005,438.89306112296885 300.0,438.8656596637064 304.79999999999995,438.8563704325112 309.6,438.8446141120792 314.4,438.8081779653005 319.20000000000005,438.7966045234861 324.0,438.8005930009939 328.8,438.7996991685862 333.59999999999997,438.7978398772793 338.4,438.7945751957804 343.2,438.7798199542103 348.0,438.75396323947473 352.79999999999995,438.7322660970715 357.6,438.73037321120074 362.4,438.72742984069083 367.20000000000005,438.7153897723923 372.0,438.70277408736086 376.8,438.70994772653864 381.6,438.71047930476243 386.40000000000003,438.7060597847878 391.2,438.69610060089417 396.0,438.69208083326697 400.79999999999995,438.65233144255353 405.6,438.6460642899251 410.4,438.6195233487717 415.20000000000005,438.6245815514016 420.0,438.63777076676234 424.79999999999995,438.621101824333 429.6,438.6133048812926 434.4,438.6248719168873 439.20000000000005,438.62284074724005 444.0,438.6303751183369 448.8,438.6522121761383 453.59999999999997,438.61852266389496 458.4,438.60857501456246 463.2,438.6022535390065 468.0,438.58938026186684 472.79999999999995,438.5943854453851 477.6,438.5889659510615 482.4,438.5789462221005 487.20000000000005,438.5615040309091 492.0,438.55193441251623 496.8,438.5351568052989 501.6,438.5141539234098 506.40000000000003,438.51796373351755 511.2,438.4964736656886 516.0,438.472350287278 520.8,438.4643282294984 525.5999999999999,438.45821481673505 530.4000000000001,438.42598310533117 535.2,438.4226381867164 540.0,438.44086171752133 544.8,438.44331407276843 549.5999999999999,438.4599618962183 554.4000000000001,438.472708175254 559.2,438.4522023029456 564.0,438.43518246693156 568.8,438.41686694527107 573.6,438.41943647314713 578.4000000000001,438.39915381103094 583.2,438.3925948355972 588.0,438.3944745287212 592.8000000000001,438.4007381620011 597.6,438.378531202605 602.4,438.37131588164647 607.1999999999999,438.3842490706463 612.0,438.35271265303226 616.8,438.34387232400735 621.5999999999999,438.34779262051836 626.4,438.3301900392113 631.2,438.31435095074374 636.0,438.32985402387044 640.8,438.3104046446539 645.5999999999999,438.2955928840762 650.4000000000001,438.2864660189569 655.2,438.2892496599167 660.0,438.28825061788035 664.8,438.28422556431013 669.5999999999999,438.2789950729949 674.4000000000001,438.26849887480347 679.2,438.2596459433564 684.0,438.2443354217066 688.8,438.2387289685445 693.6,438.2443887903727 698.4000000000001,438.22078635122386 703.2,438.2283133307818 708.0,438.2308315795769 712.8000000000001,438.21510795292625 717.6,438.1981561378152 722.4,438.197972899037 727.1999999999999,438.19319312079176 732.0,438.191509848246 736.8,438.19520414461766 741.5999999999999,438.16957506367544 746.4,438.1622909783658 751.2,438.1554065046838 756.0,438.14920386418964 760.8,438.14263555531153 765.5999999999999,438.12742675993195 770.4000000000001,438.12796157526185 775.2,438.13800989114696 780.0,438.1384942633016 784.8,438.12823397783853 789.5999999999999,438.1245632335171 794.4000000000001,438.1072681344195 799.2,438.1075957245516 804.0,438.1186109065334 808.8,438.1388793157517 813.6,438.1307432074633 818.4000000000001,438.1283754788375 823.2,438.1098320355217 828.0,438.1019861600996 832.8000000000001,438.09126477179336 837.6,438.0872464176404 842.4,438.07381589479814 847.1999999999999,438.07768555650375 852.0,438.0682145334281 856.8,438.0450970017601 861.5999999999999,438.0212327037627 866.4,438.00492949916446 871.2,438.0115300822544 876.0,438.0127525368409 880.8,437.9965516378313 885.5999999999999,437.99621193539156 890.4000000000001,437.9948110270574 895.2,437.997929610123 900.0,437.9757757304888 904.8,437.97521107034856 909.5999999999999,437.9740226314866 914.4000000000001,437.965191718633 919.2,437.9329467091238 924.0,437.9359449549427 928.8,437.94423933678826 933.6,437.9294490461764 938.4000000000001,437.9222558549018 943.2,437.8949266404136 948.0,437.8956798931446 952.8000000000001,437.8899102506766 957.6,437.8873992969459 962.4,437.86153043669333 967.1999999999999,437.8709794425149 972.0,437.87507589074494 976.7999999999998,437.8761674435208 981.5999999999999,437.877704724397 986.4000000000001,437.84797614974923 991.1999999999999,437.8307095781472 996.0,437.8423366178795 1000.8000000000001,437.83289265976526 1005.5999999999999,437.8453189426455 1010.4000000000001,437.8357875427664 1015.1999999999999,437.8295760118128 1020.0,437.8334039200453" style="fill:rgb(93.3%,39.1%,27.2%);fill-opacity:1.0;opacity:0.2;stroke:none" /></g><g class="toyplot-mark-Plot" style="fill:none" id="tf9f51e327b844806af13340cceb3cc1b"><g class="toyplot-Series"><path d="M 1020.0 275.5386053198175 L 1015.1999999999999 276.24470457827607 L 1010.4000000000001 277.15183214808 L 1005.5999999999999 277.8471718574373 L 1000.8000000000001 278.65763494078317 L 996.0 279.4593183248172 L 991.1999999999999 280.24877376668223 L 986.4000000000001 281.1126314740734 L 981.5999999999999 281.9483062577211 L 976.7999999999998 282.8576608504477 L 972.0 283.3296048534962 L 967.1999999999999 284.01944347571634 L 962.4 284.8423671095937 L 957.6 285.8928598148978 L 952.8000000000001 286.63452526148785 L 948.0 287.6247204229634 L 943.2 288.7790136683591 L 938.4000000000001 289.7605312448443 L 933.6 290.6610165998951 L 928.8 291.11876530427116 L 924.0 291.6923214919522 L 919.2 292.5028107843282 L 914.4000000000001 293.24294252751497 L 909.5999999999999 294.1522755496223 L 904.8 295.0544297174058 L 900.0 295.66612163143765 L 895.2 296.60198337335146 L 890.4000000000001 297.4875074729511 L 885.5999999999999 298.2738378169063 L 880.8 299.07688742876275 L 876.0 299.9847744142145 L 871.2 300.732964116326 L 866.4 301.4593405627999 L 861.5999999999999 302.304381016897 L 856.8 302.8486883585481 L 852.0 303.5469549716975 L 847.1999999999999 304.2327891620459 L 842.4 304.8493195705691 L 837.6 305.5049931865566 L 832.8000000000001 306.3211881052267 L 828.0 306.960687931094 L 823.2 307.91049580001265 L 818.4000000000001 308.84017764383003 L 813.6 309.7221491127101 L 808.8 310.6874460422033 L 804.0 311.30391113653366 L 799.2 312.19284235945406 L 794.4000000000001 313.07886852870837 L 789.5999999999999 313.8787592934241 L 784.8 314.75551169359227 L 780.0 315.5235295547789 L 775.2 316.2814398177797 L 770.4000000000001 316.9851029335583 L 765.5999999999999 317.75415716044665 L 760.8 318.5656911624545 L 756.0 319.4041972695112 L 751.2 320.09133517560963 L 746.4 321.24394789508654 L 741.5999999999999 321.8124635876671 L 736.8 322.71646681827 L 732.0 323.5262123120014 L 727.1999999999999 324.44588678968114 L 722.4 325.02044889735663 L 717.6 325.7192384519412 L 712.8000000000001 326.56709371691994 L 708.0 327.18037291654707 L 703.2 327.9901864954222 L 698.4000000000001 328.66975807565115 L 693.6 329.36351137614594 L 688.8 330.04000924108215 L 684.0 330.7554081154382 L 679.2 331.68888095947796 L 674.4000000000001 332.6634734176727 L 669.5999999999999 333.3703205177348 L 664.8 334.1502009677455 L 660.0 334.92353632168295 L 655.2 335.52896596906646 L 650.4000000000001 336.30954708450656 L 645.5999999999999 336.9883093897957 L 640.8 337.96992861011074 L 636.0 338.91392638226347 L 631.2 339.53729585473405 L 626.4 340.3706074097487 L 621.5999999999999 340.9259554347771 L 616.8 341.64254779110234 L 612.0 342.4110796206816 L 607.1999999999999 343.01992352051286 L 602.4 343.89845671144974 L 597.6 344.7337651125772 L 592.8000000000001 345.5340535164371 L 588.0 346.17206353743455 L 583.2 346.93006505886933 L 578.4000000000001 347.69057268997716 L 573.6 348.409102950641 L 568.8 348.9075094545109 L 564.0 349.74035421573154 L 559.2 350.4196482563311 L 554.4000000000001 351.5140095198938 L 549.5999999999999 352.06519491488785 L 544.8 352.8835827084249 L 540.0 353.7708775561606 L 535.2 354.3513389128485 L 530.4000000000001 355.326468350085 L 525.5999999999999 356.1822934290412 L 520.8 357.13402102525293 L 516.0 357.8299255173917 L 511.2 358.7891655835949 L 506.40000000000003 359.8787579442384 L 501.6 360.8166166681821 L 496.8 361.58888689243724 L 492.0 362.17458453110686 L 487.20000000000005 362.86825449166594 L 482.4 363.77266597114743 L 477.6 364.5994556238124 L 472.79999999999995 365.63912848284616 L 468.0 366.6185390370259 L 463.2 367.32172947817025 L 458.4 368.11681643245623 L 453.59999999999997 368.9929985301003 L 448.8 369.76721256654963 L 444.0 370.5142583496154 L 439.20000000000005 371.0936007712104 L 434.4 371.8200826400199 L 429.6 372.66959887392363 L 424.79999999999995 373.5070426874126 L 420.0 374.135386355617 L 415.20000000000005 374.7840101085884 L 410.4 375.58751861070317 L 405.6 376.51517102683664 L 400.79999999999995 377.34041715086147 L 396.0 378.1762716536561 L 391.2 379.0392835380798 L 386.40000000000003 379.7960100913565 L 381.6 380.6151976140937 L 376.8 381.52501400549534 L 372.0 382.3199787320435 L 367.20000000000005 383.0687889111829 L 362.4 383.6553958571684 L 357.6 384.5611284592255 L 352.79999999999995 385.40928024116806 L 348.0 386.09133109911164 L 343.2 386.76984843592857 L 338.4 387.4107416376535 L 333.59999999999997 388.1827740273275 L 328.8 389.0598023847045 L 324.0 389.73843749040043 L 319.20000000000005 390.3618922775153 L 314.4 391.1742408369188 L 309.6 391.8598658229896 L 304.79999999999995 392.5471852030787 L 300.0 393.1835124990801 L 295.20000000000005 394.0317740524083 L 290.4 394.93944865014674 L 285.59999999999997 395.5703577165842 L 280.8 396.26385656823277 L 276.0 396.93574129700795 L 271.2 397.86851717124824 L 266.4 398.9326506348465 L 261.59999999999997 399.58061697081723 L 256.79999999999995 400.48249611300577 L 252.0 401.40508748947667 L 247.2 402.0668083684637 L 242.39999999999998 402.75262992240437 L 237.60000000000002 403.58130095337964 L 232.8 404.1794553336998 L 228.0 404.99861595237144 L 223.20000000000002 405.74738853078554 L 218.4 406.33385543506665 L 213.60000000000002 407.29182757663057 L 208.8 407.9417237121116 L 204.0 408.92318789362804 L 199.2 409.7823817217908 L 194.4 410.73865032617596 L 189.60000000000002 411.60146669373097 L 184.8 412.413770927212 L 180.0 413.4552012830279 L 175.2 414.3446347141664 L 170.4 415.43456426108673 L 165.6 416.4077257024255 L 160.8 417.03628072681556 L 156.0 417.81197646399175 L 151.2 418.78978205943196 L 146.4 419.70149883184155 L 141.60000000000002 420.7056818844789 L 136.8 421.58683099726994 L 132.0 422.4375125892886 L 127.20000000000002 423.5138487063744 L 122.4 424.48346151699656 L 117.6 425.4491156296246 L 112.8 426.7368574346931 L 108.0 427.7795398000377 L 103.2 428.8187483093681 L 98.4 429.7597735781494 L 93.6 430.67693088068717 L 88.8 431.83590531467433 L 84.0 433.0987276604599 L 79.19999999999999 434.19903716363757 L 74.39999999999999 435.6328359682302 L 69.6 436.9752386049726 L 64.8 438.42652610605876" style="stroke:rgb(93.3%,39.1%,27.2%);stroke-opacity:1.0;stroke-width:2.0" /></g></g><g class="toyplot-mark-Text" id="t491a9817db7f463495e709e56521ecc5"><g class="toyplot-Series"><g class="toyplot-Datum" transform="translate(444.0,362.17458453110686)"><text x="5.0" y="3.577" style="fill:rgb(93.3%,39.1%,27.2%);fill-opacity:1.0;font-family:helvetica;font-size:14.0px;font-weight:normal;opacity:1;stroke:none;vertical-align:baseline;white-space:pre">Purifying</text></g></g></g><g class="toyplot-mark-FillBoundaries" style="stroke:none" id="t8a491bd9087940a08b3b6f5d99fde5bc"><polygon points="1020.0,96.60300018038669 1015.1999999999999,98.24388956472234 1010.4000000000001,99.46425516494295 1005.5999999999999,100.75032404852462 1000.8000000000001,102.6416010383065 996.0,103.8179870245439 991.1999999999999,105.31638694122589 986.4000000000001,107.20509999201198 981.5999999999999,108.960853199702 976.7999999999998,110.28795148832734 972.0,112.32798690908652 967.1999999999999,113.98340041362246 962.4,115.61644342224565 957.6,117.43848863075186 952.8000000000001,118.84722338215136 948.0,120.49602577264614 943.2,122.07443667735274 938.4000000000001,123.51560039264793 933.6,125.22111459339206 928.8,126.86794739223718 924.0,128.31617926688753 919.2,129.9628341210174 914.4000000000001,131.77948635406128 909.5999999999999,133.49243413266342 904.8,135.07716078961028 900.0,136.7701578627167 895.2,138.49502466424056 890.4000000000001,139.66935960855346 885.5999999999999,141.3774350866295 880.8,142.80816167315328 876.0,144.4715587541778 871.2,145.98020206519357 866.4,147.2624072759713 861.5999999999999,149.26621684952988 856.8,150.86444508448656 852.0,152.53512601005266 847.1999999999999,153.95368245949794 842.4,155.76996852499 837.6,156.87737786419603 832.8000000000001,158.51019654458133 828.0,160.58930566099335 823.2,162.54863756806196 818.4000000000001,163.917187812555 813.6,165.90933942925906 808.8,167.2288240020842 804.0,168.62995096100255 799.2,170.1372001428432 794.4000000000001,172.22891066148753 789.5999999999999,173.80656497825967 784.8,175.29100296537055 780.0,177.06629093353547 775.2,178.66322322841575 770.4000000000001,180.26785790470223 765.5999999999999,181.7963325875009 760.8,183.4510640629441 756.0,185.0362806289733 751.2,186.72163753085738 746.4,188.14198629482317 741.5999999999999,189.8022836245413 736.8,191.52790677289377 732.0,192.85630750901402 727.1999999999999,194.95732945160444 722.4,196.4608605722036 717.6,198.3410466522891 712.8000000000001,200.25619536414746 708.0,201.50708852893246 703.2,203.52797381985314 698.4000000000001,205.30843669259949 693.6,207.16832428224686 688.8,208.30188829059327 684.0,210.38324851556268 679.2,211.81340542544234 674.4000000000001,213.18814435553693 669.5999999999999,214.43901248101264 664.8,216.1002112355485 660.0,217.83226698048517 655.2,219.3712914804122 650.4000000000001,221.4037189266404 645.5999999999999,222.84870930346227 640.8,224.32903951506697 636.0,225.89913009701982 631.2,227.65724365896727 626.4,229.15186835083404 621.5999999999999,230.89857111776 616.8,232.62619303228882 612.0,234.11756070297 607.1999999999999,236.01725609672417 602.4,237.5201269208138 597.6,239.21559254810532 592.8000000000001,240.9544163211701 588.0,242.78350754548023 583.2,244.39355825912105 578.4000000000001,245.78156513053375 573.6,247.09468354146273 568.8,248.88123850883758 564.0,250.49412033605324 559.2,252.29639415827495 554.4000000000001,254.1337141932799 549.5999999999999,256.0083299590019 544.8,257.27667802097267 540.0,259.11065322202904 535.2,260.788176612858 530.4000000000001,262.6678179904737 525.5999999999999,264.2788592889289 520.8,266.2866977896312 516.0,268.1457919193779 511.2,269.8341001457027 506.40000000000003,271.1946605319703 501.6,272.87795642881105 496.8,274.43542007774266 492.0,276.0595988265419 487.20000000000005,277.9639632527965 482.4,279.34758582084953 477.6,280.68751234809713 472.79999999999995,281.9736707396834 468.0,283.2551717211294 463.2,285.1797607060769 458.4,286.80675759585426 453.59999999999997,288.6841226765063 448.8,290.53617878293903 444.0,291.8381286109849 439.20000000000005,293.04394625978136 434.4,295.02888390860494 429.6,296.2450694788216 424.79999999999995,297.7531764705113 420.0,299.1948147944495 415.20000000000005,300.8306150201931 410.4,302.74516815345663 405.6,304.50146393002257 400.79999999999995,306.4831245530402 396.0,308.1730384744977 391.2,310.3247587068319 386.40000000000003,312.0021709689516 381.6,313.2169147449004 376.8,314.6812204234389 372.0,316.20319353010433 367.20000000000005,317.84396613068674 362.4,319.36934215678536 357.6,320.9430306051781 352.79999999999995,322.27931870617454 348.0,323.91083447147884 343.2,324.95285752394886 338.4,326.68853267447383 333.59999999999997,328.58847627025966 328.8,330.57932957801137 324.0,332.21311854738155 319.20000000000005,333.7886720427431 314.4,335.5215810899844 309.6,337.3731308984585 304.79999999999995,338.8114734766493 300.0,340.47357164799274 295.20000000000005,342.2496424849882 290.4,343.5504768578171 285.59999999999997,345.2803880249729 280.8,346.87888990117 276.0,348.8327546664547 271.2,351.09267764797784 266.4,352.81024605358596 261.59999999999997,355.12896325371736 256.79999999999995,356.4508035166604 252.0,358.0748346107534 247.2,359.1151989824973 242.39999999999998,360.87037545651395 237.60000000000002,362.3773030793618 232.8,364.1475428703493 228.0,365.9196431849937 223.20000000000002,367.6581501919274 218.4,369.5788877450923 213.60000000000002,371.56619453114547 208.8,373.34954650066794 204.0,374.97588787125306 199.2,377.08939633276884 194.4,379.0847948869699 189.60000000000002,380.8116806820928 184.8,382.52000898877225 180.0,384.62299454042005 175.2,386.55574540186177 170.4,388.00780120256735 165.6,389.4316538235745 160.8,391.33569821424055 156.0,393.00631942282246 151.2,394.9436977048539 146.4,397.05693095668386 141.60000000000002,399.08315527661824 136.8,400.83644860122615 132.0,403.0603714923104 127.20000000000002,404.969617507162 122.4,407.1256680650954 117.6,409.52912308521013 112.8,411.69710297293204 108.0,413.88065293859484 103.2,416.27558525825714 98.4,418.69071997050696 93.6,420.9786552352528 88.8,423.32904294562167 84.0,425.71588261369965 79.19999999999999,428.2719537800644 74.39999999999999,430.93754442570065 69.6,433.8570731232278 64.8,436.8227998242339 64.8,439.9361731936906 69.6,439.87196473529696 74.39999999999999,439.82269303805356 79.19999999999999,439.7814737351823 84.0,439.73787834945176 88.8,439.6966724226167 93.6,439.6745693344673 98.4,439.6404619865384 103.2,439.61445645698063 108.0,439.58040496835736 112.8,439.55179981449555 117.6,439.51581115817964 122.4,439.4920631709855 127.20000000000002,439.47915492364535 132.0,439.4407558997115 136.8,439.423970590467 141.60000000000002,439.39716625479474 146.4,439.3666684188305 151.2,439.3267211263359 156.0,439.2974229661498 160.8,439.275843115444 165.6,439.2646145208054 170.4,439.2526170204909 175.2,439.25116929349906 180.0,439.23840202844815 184.8,439.1938771437298 189.60000000000002,439.16620752553825 194.4,439.1367763292433 199.2,439.1236111669463 204.0,439.11202343923884 208.8,439.10072095675304 213.60000000000002,439.0822143575219 218.4,439.0675436328969 223.20000000000002,439.07243429290946 228.0,439.05795428216663 232.8,439.0528771278192 237.60000000000002,439.0369062080481 242.39999999999998,439.0093457626249 247.2,438.97560202570287 252.0,438.96293332501585 256.79999999999995,438.94827517396874 261.59999999999997,438.94527822050753 266.4,438.9361973917088 271.2,438.9361718559355 276.0,438.912305614815 280.8,438.9009248757119 285.59999999999997,438.88516349554686 290.4,438.8770873494797 295.20000000000005,438.8830741227155 300.0,438.8436167379889 304.79999999999995,438.82655253674756 309.6,438.8239085660344 314.4,438.8111341848309 319.20000000000005,438.78558783545776 324.0,438.77170401792233 328.8,438.78049724915763 333.59999999999997,438.7843633668315 338.4,438.77834811247624 343.2,438.76518933588824 348.0,438.78012454049974 352.79999999999995,438.78307433825614 357.6,438.77082845528787 362.4,438.7551381348033 367.20000000000005,438.7383182220673 372.0,438.72816745374814 376.8,438.7446754510518 381.6,438.7467348133462 386.40000000000003,438.73455499911455 391.2,438.73645418980925 396.0,438.72163526644084 400.79999999999995,438.6987351853596 405.6,438.6471603756266 410.4,438.6300777967013 415.20000000000005,438.6327194039603 420.0,438.62211821925627 424.79999999999995,438.61563555351046 429.6,438.61648933626833 434.4,438.6076504143492 439.20000000000005,438.6030138937591 444.0,438.5837578460813 448.8,438.5897583091168 453.59999999999997,438.58010042631264 458.4,438.5590870142072 463.2,438.5423271750075 468.0,438.5256086702417 472.79999999999995,438.5197999837224 477.6,438.52476473186846 482.4,438.5210923791871 487.20000000000005,438.5341431805819 492.0,438.54203945947467 496.8,438.5409477950164 501.6,438.52361573020596 506.40000000000003,438.5260199151976 511.2,438.4958271340684 516.0,438.4944380588521 520.8,438.49640680994185 525.5999999999999,438.4665358484471 530.4000000000001,438.4550852738343 535.2,438.4483102589027 540.0,438.43435156676185 544.8,438.4352079968395 549.5999999999999,438.40800477462466 554.4000000000001,438.3991214353697 559.2,438.3928314927809 564.0,438.3873764804982 568.8,438.381471243718 573.6,438.3662261844103 578.4000000000001,438.3733730308378 583.2,438.36408043683014 588.0,438.35180577524403 592.8000000000001,438.3276567271127 597.6,438.32438366379716 602.4,438.3219641826132 607.1999999999999,438.3338523664514 612.0,438.3283499078395 616.8,438.3218209514397 621.5999999999999,438.30376582254956 626.4,438.2757476002691 631.2,438.26059549877516 636.0,438.2364794809037 640.8,438.24561916838167 645.5999999999999,438.2536178978036 650.4000000000001,438.2581994131379 655.2,438.23175275625397 660.0,438.2277033020583 664.8,438.2183678651662 669.5999999999999,438.20782243805576 674.4000000000001,438.19895569063897 679.2,438.19673569505835 684.0,438.202408595654 688.8,438.18176348987544 693.6,438.1899738929332 698.4000000000001,438.18577822856525 703.2,438.19983547320413 708.0,438.18752932636966 712.8000000000001,438.1928811628443 717.6,438.1766359166332 722.4,438.16540344028795 727.1999999999999,438.15879615338065 732.0,438.16615185146617 736.8,438.1523904526202 741.5999999999999,438.1530279635729 746.4,438.14824814516834 751.2,438.12598084992203 756.0,438.1017744965988 760.8,438.0918268686492 765.5999999999999,438.0892068233169 770.4000000000001,438.0874573049852 775.2,438.09028335902406 780.0,438.07347448412725 784.8,438.04849573857564 789.5999999999999,438.0526266796421 794.4000000000001,438.05856298057864 799.2,438.0676097007231 804.0,438.05334228774717 808.8,438.05942656631817 813.6,438.0536529367122 818.4000000000001,438.04832902309073 823.2,438.03467039327705 828.0,438.03084852660567 832.8000000000001,438.0391950077391 837.6,438.040097888038 842.4,438.0431653843893 847.1999999999999,438.04104792959276 852.0,438.03204377160534 856.8,438.0230974148751 861.5999999999999,438.02157600716396 866.4,438.01225541533483 871.2,438.0324139744016 876.0,438.04346740812144 880.8,438.02548637322565 885.5999999999999,438.01332424958406 890.4000000000001,437.984689824903 895.2,437.9993188681595 900.0,437.9999140407679 904.8,438.030503386812 909.5999999999999,438.0308400816363 914.4000000000001,438.01810919720504 919.2,438.01300887124233 924.0,437.9888624499277 928.8,437.9673409139147 933.6,437.95514964625625 938.4000000000001,437.93930012582496 943.2,437.9229039625495 948.0,437.92348276095566 952.8000000000001,437.9145745995047 957.6,437.8983336598601 962.4,437.8830437607669 967.1999999999999,437.88643330103196 972.0,437.88156247565877 976.7999999999998,437.87510772938185 981.5999999999999,437.87961728531207 986.4000000000001,437.88622368651073 991.1999999999999,437.87011618031596 996.0,437.8426654900056 1000.8000000000001,437.8714010444414 1005.5999999999999,437.8669582292812 1010.4000000000001,437.8645225211415 1015.1999999999999,437.8591715296635 1020.0,437.8532055361223" style="fill:rgb(64.1%,2.8%,26.4%);fill-opacity:1.0;opacity:0.2;stroke:none" /></g><g class="toyplot-mark-Plot" style="fill:none" id="tecd68fd83fe8420e984911565b404817"><g class="toyplot-Series"><path d="M 1020.0 269.3748973221322 L 1015.1999999999999 270.19235901752944 L 1010.4000000000001 270.7998663219007 L 1005.5999999999999 271.4416829096217 L 1000.8000000000001 272.3850999969325 L 996.0 272.9876607672692 L 991.1999999999999 273.72313538045495 L 986.4000000000001 274.65943815275057 L 981.5999999999999 275.54061795719497 L 976.7999999999998 276.20642187947277 L 972.0 277.2232122167139 L 967.1999999999999 278.04848355629525 L 962.4 278.8666998307393 L 957.6 279.7700774854459 L 952.8000000000001 280.46632439132327 L 948.0 281.28627150584526 L 943.2 282.0757663574016 L 938.4000000000001 282.7881501334115 L 933.6 283.6329824735679 L 928.8 284.45030323916126 L 924.0 285.1636584084799 L 919.2 285.97491262488757 L 914.4000000000001 286.88068857842813 L 909.5999999999999 287.7307970255136 L 904.8 288.5233287013991 L 900.0 289.3851219109744 L 895.2 290.24785289804055 L 890.4000000000001 290.84233489182526 L 885.5999999999999 291.68205541852274 L 880.8 292.3913376499638 L 876.0 293.2140456730282 L 871.2 293.973894045396 L 866.4 294.6250759303183 L 861.5999999999999 295.62232042118296 L 856.8 296.42067383480577 L 852.0 297.25154111922365 L 847.1999999999999 297.95631726495265 L 842.4 298.86340157030037 L 837.6 299.418639988079 L 832.8000000000001 300.23550076842116 L 828.0 301.27922856719385 L 823.2 302.2569835873925 L 818.4000000000001 302.9344293947322 L 813.6 303.9278432462734 L 808.8 304.58469871788304 L 804.0 305.2883043366277 L 799.2 306.03479522106005 L 794.4000000000001 307.08517384045444 L 789.5999999999999 307.87696914930876 L 784.8 308.6212536133974 L 780.0 309.4964082247041 L 775.2 310.2864699346958 L 770.4000000000001 311.09020029985857 L 765.5999999999999 311.85356288209204 L 760.8 312.67961859714745 L 756.0 313.46725306618725 L 751.2 314.2978283404676 L 746.4 314.9968690748274 L 741.5999999999999 315.8246278304842 L 736.8 316.68775816013675 L 732.0 317.3450778287739 L 727.1999999999999 318.3992666491119 L 722.4 319.14772856595783 L 717.6 320.08220536782795 L 712.8000000000001 321.0316571006516 L 708.0 321.65977960128146 L 703.2 322.6640691733245 L 698.4000000000001 323.56132923201716 L 693.6 324.48917519465687 L 688.8 325.06006240035896 L 684.0 326.0904199599544 L 679.2 326.80833486519197 L 674.4000000000001 327.494594332449 L 669.5999999999999 328.11559502147844 L 664.8 328.9409216851911 L 660.0 329.80228183921344 L 655.2 330.56976936207906 L 650.4000000000001 331.5727597567512 L 645.5999999999999 332.2975457028293 L 640.8 333.0417101733426 L 636.0 333.831325308058 L 631.2 334.6983240800961 L 626.4 335.4380603752825 L 621.5999999999999 336.29740264760517 L 616.8 337.15218604042457 L 612.0 337.8946053975652 L 607.1999999999999 338.8417018651364 L 602.4 339.59908136910025 L 597.6 340.4456044421541 L 592.8000000000001 341.3133797970287 L 588.0 342.21585088511813 L 583.2 343.0147389111455 L 578.4000000000001 343.704096049848 L 573.6 344.36422867852616 L 568.8 345.2498836325598 L 564.0 346.0533719277775 L 559.2 346.9517813327471 L 554.4000000000001 347.86729637895513 L 549.5999999999999 348.8001625921886 L 544.8 349.4207350120666 L 540.0 350.3381508276336 L 535.2 351.1699331769776 L 530.4000000000001 352.1063663583197 L 525.5999999999999 352.90616172024096 L 520.8 353.8951454898447 L 516.0 354.82567693026294 L 511.2 355.6691365058171 L 506.40000000000003 356.3343203083864 L 501.6 357.1771703493025 L 496.8 357.94723614136313 L 492.0 358.75877968353365 L 487.20000000000005 359.7149100361072 L 482.4 360.4132467208311 L 477.6 361.08137380811434 L 472.79999999999995 361.72693537798057 L 468.0 362.36478152544385 L 463.2 363.3187167655347 L 458.4 364.12383529082354 L 453.59999999999997 365.05201112509684 L 448.8 365.9732102369111 L 444.0 366.6271853824518 L 439.20000000000005 367.2204661830111 L 434.4 368.21061674712786 L 429.6 368.8142900712767 L 424.79999999999995 369.5687704585004 L 420.0 370.28634828759664 L 415.20000000000005 371.0989478081164 L 410.4 372.05754517837767 L 405.6 372.92715177719793 L 400.79999999999995 373.89219468384033 L 396.0 374.7257016040284 L 391.2 375.7941522585113 L 386.40000000000003 376.6338079849185 L 381.6 377.2350899657771 L 376.8 377.96827248619354 L 372.0 378.73751303817807 L 367.20000000000005 379.5528239543097 L 362.4 380.30710201099106 L 357.6 381.08610107494513 L 352.79999999999995 381.7481221839592 L 348.0 382.5653549654896 L 343.2 383.0938340940303 L 338.4 383.9550922809988 L 333.59999999999997 384.90205645171403 L 328.8 385.8994161644269 L 324.0 386.72070726472964 L 319.20000000000005 387.5015421036427 L 314.4 388.3552234525767 L 309.6 389.274611166212 L 304.79999999999995 389.99246046995086 L 300.0 390.814977455002 L 295.20000000000005 391.68328418113634 L 290.4 392.33669475416866 L 285.59999999999997 393.19761226471303 L 280.8 393.9889825127291 L 276.0 394.96022452581985 L 271.2 396.07825289602124 L 266.4 396.9370243309386 L 261.59999999999997 398.0918425166049 L 256.79999999999995 398.75126417134584 L 252.0 399.5559506428687 L 247.2 400.06979847839716 L 242.39999999999998 400.9305148469445 L 237.60000000000002 401.67019843565686 L 232.8 402.547332871265 L 228.0 403.4308444514135 L 223.20000000000002 404.29285794950897 L 218.4 405.2556720560977 L 213.60000000000002 406.2419900868117 L 208.8 407.1244127719575 L 204.0 407.93193221600717 L 199.2 408.98289258291123 L 194.4 409.9740092788633 L 189.60000000000002 410.8227365782772 L 184.8 411.66306592252124 L 180.0 412.69229625598604 L 175.2 413.6522880541814 L 170.4 414.3775920910382 L 165.6 415.0835196513845 L 160.8 416.0299275493983 L 156.0 416.8544482283363 L 151.2 417.808488289259 L 146.4 418.8451312689267 L 141.60000000000002 419.84299451091175 L 136.8 420.70623900537953 L 132.0 421.8098077962994 L 127.20000000000002 422.7452312917584 L 122.4 423.81680244705495 L 117.6 425.00665596351524 L 112.8 426.0726515792183 L 108.0 427.1501239851187 L 103.2 428.33056440063825 L 98.4 429.5251289919843 L 93.6 430.6520429503927 L 88.8 431.8161852615025 L 84.0 432.98900213212397 L 79.19999999999999 434.24524002244107 L 74.39999999999999 435.5574256938235 L 69.6 436.9925541939654 L 64.8 438.44331331527167" style="stroke:rgb(64.1%,2.8%,26.4%);stroke-opacity:1.0;stroke-width:2.0" /></g></g><g class="toyplot-mark-Text" id="t3d1bb49bb719400c995e6d5b4f2b088c"><g class="toyplot-Series"><g class="toyplot-Datum" transform="translate(444.0,358.75877968353365)"><text x="5.0" y="3.577" style="fill:rgb(64.1%,2.8%,26.4%);fill-opacity:1.0;font-family:helvetica;font-size:14.0px;font-weight:normal;opacity:1;stroke:none;vertical-align:baseline;white-space:pre">Positive</text></g></g></g></g><g class="toyplot-coordinates-Axis" id="t6aa88cd52a6746d9a814705246139a45" transform="translate(60.0,440.0)translate(0,10.0)"><line x1="0" y1="0" x2="480.0" y2="0" style="" /><g><line x1="0.0" y1="5.0" x2="0.0" y2="0" style="" /><line x1="96.0" y1="5.0" x2="96.0" y2="0" style="" /><line x1="192.0" y1="5.0" x2="192.0" y2="0" style="" /><line x1="288.0" y1="5.0" x2="288.0" y2="0" style="" /><line x1="384.0" y1="5.0" x2="384.0" y2="0" style="" /><line x1="480.0" y1="5.0" x2="480.0" y2="0" style="" /></g><g><g transform="translate(0.0,10.0)"><text x="-3.6140000000000003" y="11.1215" style="fill:rgb(16.1%,15.3%,14.1%);fill-opacity:1.0;font-family:helvetica;font-size:13.0px;font-weight:normal;stroke:none;vertical-align:baseline;white-space:pre">0</text></g><g transform="translate(96.0,10.0)"><text x="-14.456000000000001" y="11.1215" style="fill:rgb(16.1%,15.3%,14.1%);fill-opacity:1.0;font-family:helvetica;font-size:13.0px;font-weight:normal;stroke:none;vertical-align:baseline;white-space:pre">4000</text></g><g transform="translate(192.0,10.0)"><text x="-14.456000000000001" y="11.1215" style="fill:rgb(16.1%,15.3%,14.1%);fill-opacity:1.0;font-family:helvetica;font-size:13.0px;font-weight:normal;stroke:none;vertical-align:baseline;white-space:pre">8000</text></g><g transform="translate(288.0,10.0)"><text x="-18.070000000000004" y="11.1215" style="fill:rgb(16.1%,15.3%,14.1%);fill-opacity:1.0;font-family:helvetica;font-size:13.0px;font-weight:normal;stroke:none;vertical-align:baseline;white-space:pre">12000</text></g><g transform="translate(384.0,10.0)"><text x="-18.070000000000004" y="11.1215" style="fill:rgb(16.1%,15.3%,14.1%);fill-opacity:1.0;font-family:helvetica;font-size:13.0px;font-weight:normal;stroke:none;vertical-align:baseline;white-space:pre">16000</text></g><g transform="translate(480.0,10.0)"><text x="-18.070000000000004" y="11.1215" style="fill:rgb(16.1%,15.3%,14.1%);fill-opacity:1.0;font-family:helvetica;font-size:13.0px;font-weight:normal;stroke:none;vertical-align:baseline;white-space:pre">20000</text></g></g><g transform="translate(240.0,30.0)"><text x="-71.568" y="13.687999999999999" style="fill:rgb(16.1%,15.3%,14.1%);fill-opacity:1.0;font-family:helvetica;font-size:16.0px;font-weight:bold;stroke:none;vertical-align:baseline;white-space:pre">Time (generations)</text></g><g class="toyplot-coordinates-Axis-coordinates" style="visibility:hidden" transform=""><line x1="0" x2="0" y1="-5.0" y2="7.5" style="stroke:rgb(43.9%,50.2%,56.5%);stroke-opacity:1.0;stroke-width:1.0" /><text x="0" y="-10.0" style="alignment-baseline:alphabetic;fill:rgb(43.9%,50.2%,56.5%);fill-opacity:1.0;font-size:10px;font-weight:normal;stroke:none;text-anchor:middle" /></g></g><g class="toyplot-coordinates-Axis" id="td6ac23da741d4deb8b26426d415a8d0c" transform="translate(60.0,440.0)rotate(-90.0)translate(0,-10.0)"><line x1="0" y1="0" x2="380.0" y2="0" style="" /><g><line x1="0.0" y1="-5.0" x2="0.0" y2="0" style="" /><line x1="126.66666666666666" y1="-5.0" x2="126.66666666666666" y2="0" style="" /><line x1="253.33333333333331" y1="-5.0" x2="253.33333333333331" y2="0" style="" /><line x1="380.0" y1="-5.0" x2="380.0" y2="0" style="" /></g><g><g transform="translate(0.0,-10.0)"><text x="-3.6140000000000003" y="0.0" style="fill:rgb(16.1%,15.3%,14.1%);fill-opacity:1.0;font-family:helvetica;font-size:13.0px;font-weight:normal;stroke:none;vertical-align:baseline;white-space:pre">0</text></g><g transform="translate(126.66666666666666,-10.0)"><text x="-10.841999999999999" y="0.0" style="fill:rgb(16.1%,15.3%,14.1%);fill-opacity:1.0;font-family:helvetica;font-size:13.0px;font-weight:normal;stroke:none;vertical-align:baseline;white-space:pre">500</text></g><g transform="translate(253.33333333333331,-10.0)"><text x="-14.456000000000001" y="0.0" style="fill:rgb(16.1%,15.3%,14.1%);fill-opacity:1.0;font-family:helvetica;font-size:13.0px;font-weight:normal;stroke:none;vertical-align:baseline;white-space:pre">1000</text></g><g transform="translate(380.0,-10.0)"><text x="-14.456000000000001" y="0.0" style="fill:rgb(16.1%,15.3%,14.1%);fill-opacity:1.0;font-family:helvetica;font-size:13.0px;font-weight:normal;stroke:none;vertical-align:baseline;white-space:pre">1500</text></g></g><g transform="translate(190.0,-30.0)"><text x="-116.57039999999999" y="0.0" style="fill:rgb(16.1%,15.3%,14.1%);fill-opacity:1.0;font-family:helvetica;font-size:16.0px;font-weight:bold;stroke:none;vertical-align:baseline;white-space:pre">Heterozygosity (&#215;10</text><text x="35.0296" y="-3.36" style="fill:rgb(16.1%,15.3%,14.1%);fill-opacity:1.0;font-family:helvetica;font-size:11.2px;font-weight:bold;stroke:none;vertical-align:baseline;white-space:pre">-6</text><text x="44.9864" y="0.0" style="fill:rgb(16.1%,15.3%,14.1%);fill-opacity:1.0;font-family:helvetica;font-size:16.0px;font-weight:bold;stroke:none;vertical-align:baseline;white-space:pre">, CI=95%)</text></g><g class="toyplot-coordinates-Axis-coordinates" style="visibility:hidden" transform=""><line x1="0" x2="0" y1="5.0" y2="-7.5" style="stroke:rgb(43.9%,50.2%,56.5%);stroke-opacity:1.0;stroke-width:1.0" /><text x="0" y="10.0" style="alignment-baseline:hanging;fill:rgb(43.9%,50.2%,56.5%);fill-opacity:1.0;font-size:10px;font-weight:normal;stroke:none;text-anchor:middle" /></g></g><g transform="translate(300.0,40.0)"><text x="-242.29749999999999" y="-6.545499999999997" style="fill:rgb(16.1%,15.3%,14.1%);fill-opacity:1.0;font-family:helvetica;font-size:19.0px;font-weight:bold;stroke:none;vertical-align:baseline;white-space:pre">High Mutation Rate, Expected Heterozygosity, No Sex</text></g></g></svg>